<svg width="40" height="40" viewBox="0 0 40 40" fill="none" xmlns="http://www.w3.org/2000/svg">
<g clip-path="url(#clip0)">
<path d="M34.1447 33.0349C33.8396 32.7298 33.3426 32.7323 33.0374 33.0373C32.7323 33.3424 32.7323 33.8371 33.0374 34.1423C33.19 34.2948 33.3899 34.3711 33.5898 34.3711C33.7897 34.3711 33.9897 34.2948 34.1422 34.1423L34.1472 34.1373C34.4522 33.8323 34.4498 33.34 34.1447 33.0349Z" fill="#0D68B0"/>
<path d="M39.9602 18.7369C39.6544 13.8783 37.5881 9.30483 34.1421 5.85881C30.3646 2.08139 25.3422 0.000999451 20 0.000999451C14.9079 0.000999451 10.1064 1.891 6.39656 5.33944L5.54719 4.5617C5.31867 4.3524 4.98836 4.29795 4.70484 4.42287C4.42133 4.54772 4.23836 4.82819 4.23836 5.13787V10.9776C4.23836 11.409 4.5882 11.7589 5.01961 11.7589H10.8594C11.1711 11.7589 11.453 11.5736 11.5766 11.2873C11.7002 11.0012 11.6418 10.6688 11.428 10.4419L10.0527 8.98209C15.8724 3.72248 24.8886 3.89623 30.4966 9.50443C36.2845 15.2922 36.2845 24.7098 30.4966 30.4976C27.6929 33.3013 23.9651 34.8454 20 34.8454C16.0349 34.8454 12.3071 33.3013 9.50344 30.4976C6.69961 27.6938 5.15547 23.9662 5.15547 20.001C5.15547 19.5696 4.80562 19.2197 4.37422 19.2197H0.78125C0.349844 19.2197 0 19.5696 0 20.001C0 25.3432 2.08039 30.3656 5.85781 34.1432C9.2807 37.5661 13.8227 39.6302 18.6469 39.9554C19.0983 39.9859 19.5487 40.0009 19.9986 40.0009C24.31 40.0009 28.5165 38.6125 31.9698 36.0267C32.3152 35.768 32.3854 35.2784 32.1269 34.933C31.8681 34.5877 31.3786 34.5174 31.0332 34.7759C23.7529 40.2274 13.4047 39.4804 6.96266 33.0383C3.66492 29.7406 1.77023 25.414 1.57859 20.7822H3.61109C3.80148 24.8715 5.48438 28.6884 8.39852 31.6025C14.7956 37.9996 25.2044 37.9996 31.6015 31.6025C37.9985 25.2054 37.9985 14.7966 31.6015 8.39951C25.2044 2.0024 14.7956 2.0024 8.39852 8.39951C8.09984 8.69818 8.09266 9.18022 8.38234 9.48772L9.05 10.1964H5.80086V6.91256L5.88273 6.98748C6.19102 7.26983 6.66695 7.25944 6.96273 6.96373C10.4451 3.48131 15.0752 1.5635 20 1.5635C24.9248 1.5635 29.5549 3.48131 33.0373 6.96373C39.5404 13.4669 40.2427 23.874 34.671 31.1718C34.4091 31.5147 34.4749 32.005 34.8179 32.2669C35.1607 32.5288 35.6511 32.4629 35.913 32.12C38.8261 28.3045 40.2634 23.5516 39.9602 18.7369Z" fill="#0D68B0"/>
<path d="M14.1714 22.5781H11.807C11.91 22.4837 12.0142 22.3861 12.1185 22.2857C13.5967 20.8625 14.3153 19.6563 14.3153 18.598C14.3153 16.9599 13.2147 15.8594 11.5766 15.8594C10.0665 15.8594 8.83789 17.088 8.83789 18.598C8.83789 19.0295 9.18773 19.3793 9.61914 19.3793C10.0505 19.3793 10.4004 19.0295 10.4004 18.598C10.4004 17.9495 10.928 17.4219 11.5766 17.4219C12.7528 17.4219 12.7528 18.3071 12.7528 18.598C12.7528 19.6855 10.656 21.6645 9.16727 22.7222C8.88984 22.919 8.77164 23.2726 8.87484 23.5966C8.97812 23.9205 9.27914 24.1406 9.61922 24.1406H14.1714C14.6028 24.1406 14.9527 23.7908 14.9527 23.3594C14.9527 22.928 14.6028 22.5781 14.1714 22.5781Z" fill="#0D68B0"/>
<path d="M19.8997 20.1173H19.3665V19.8959C19.3665 19.4645 19.0166 19.1147 18.5852 19.1147C18.1538 19.1147 17.804 19.4645 17.804 19.8959V20.1173H16.726L18.4838 17.027C18.6971 16.6519 18.5661 16.1749 18.191 15.9616C17.8162 15.7484 17.339 15.8793 17.1256 16.2544L14.7037 20.5122C14.5662 20.7541 14.5676 21.0508 14.7075 21.2913C14.8474 21.5318 15.1046 21.6798 15.3829 21.6798H17.804V23.3595C17.804 23.7909 18.1538 24.1407 18.5852 24.1407C19.0166 24.1407 19.3665 23.7909 19.3665 23.3595V21.6798H19.8997C20.3312 21.6798 20.681 21.3299 20.681 20.8985C20.681 20.4671 20.3312 20.1173 19.8997 20.1173Z" fill="#0D68B0"/>
<path d="M24.8089 15.9116C24.4061 15.7567 23.9542 15.9574 23.7993 16.3602L21.2144 23.0789C21.0595 23.4816 21.2604 23.9336 21.663 24.0886C21.7554 24.1241 21.8501 24.1409 21.9434 24.1409C22.2572 24.1409 22.5533 23.9505 22.6727 23.64L25.2575 16.9212C25.4125 16.5186 25.2116 16.0666 24.8089 15.9116Z" fill="#0D68B0"/>
<path d="M31.0224 16.1949C30.8764 15.9848 30.6367 15.8595 30.3809 15.8595H27.0996C26.6682 15.8595 26.3184 16.2093 26.3184 16.6407C26.3184 17.0721 26.6682 17.422 27.0996 17.422H29.2566L27.1487 23.087C26.9982 23.4913 27.2041 23.9412 27.6084 24.0916C27.6982 24.1251 27.7902 24.1409 27.8808 24.1409C28.1978 24.1409 28.496 23.9465 28.613 23.6319L31.113 16.9131C31.2023 16.6734 31.1684 16.405 31.0224 16.1949Z" fill="#0D68B0"/>
</g>
<defs>
<clipPath id="clip0">
<rect width="40" height="40" fill="white"/>
</clipPath>
</defs>
</svg>
