<svg width="40" height="40" viewBox="0 0 40 40" fill="none" xmlns="http://www.w3.org/2000/svg">
<path d="M18.3391 3.70481H36.3247C36.6479 3.70481 36.9099 3.44286 36.9099 3.11966C36.9099 2.79646 36.6479 2.53442 36.3247 2.53442H18.3391C18.0159 2.53442 17.7539 2.79638 17.7539 3.11966C17.7539 3.44286 18.0159 3.70481 18.3391 3.70481Z" fill="#0D68B0"/>
<path d="M36.3247 5.43628H18.3391C18.0159 5.43628 17.7539 5.69823 17.7539 6.02151C17.7539 6.34472 18.0159 6.60667 18.3391 6.60667H36.3247C36.6479 6.60667 36.9099 6.34472 36.9099 6.02151C36.9099 5.69831 36.6479 5.43628 36.3247 5.43628Z" fill="#0D68B0"/>
<path d="M18.3391 9.50877H30.5436C30.8668 9.50877 31.1288 9.24682 31.1288 8.92361C31.1288 8.60041 30.8669 8.33838 30.5436 8.33838H18.3391C18.0159 8.33838 17.7539 8.60033 17.7539 8.92361C17.7539 9.24682 18.0159 9.50877 18.3391 9.50877Z" fill="#0D68B0"/>
<path d="M36.3247 16.5129H18.3391C18.0159 16.5129 17.7539 16.7749 17.7539 17.0981C17.7539 17.4213 18.0159 17.6833 18.3391 17.6833H36.3247C36.6479 17.6833 36.9099 17.4213 36.9099 17.0981C36.9099 16.7749 36.6479 16.5129 36.3247 16.5129Z" fill="#0D68B0"/>
<path d="M36.3247 19.4148H18.3391C18.0159 19.4148 17.7539 19.6767 17.7539 20C17.7539 20.3233 18.0159 20.5853 18.3391 20.5853H36.3247C36.6479 20.5853 36.9099 20.3233 36.9099 20C36.9099 19.6767 36.6479 19.4148 36.3247 19.4148Z" fill="#0D68B0"/>
<path d="M18.3391 23.4872H30.5436C30.8668 23.4872 31.1288 23.2253 31.1288 22.9021C31.1288 22.5788 30.8669 22.3169 30.5436 22.3169H18.3391C18.0159 22.3169 17.7539 22.5788 17.7539 22.9021C17.7539 23.2253 18.0159 23.4872 18.3391 23.4872Z" fill="#0D68B0"/>
<path d="M15.5278 28.8253C15.198 28.5352 14.775 28.3913 14.3365 28.419C13.898 28.4471 13.4969 28.6442 13.2067 28.9741L12.9096 29.3119C11.8727 28.4659 10.5509 27.9568 9.11148 27.9568C5.79117 27.9568 3.08984 30.658 3.08984 33.9784C3.08984 37.2987 5.79109 39.9999 9.11148 39.9999C12.4319 39.9999 15.1331 37.2987 15.1331 33.9784C15.1331 33.3246 15.0261 32.696 14.8322 32.1064L15.6766 31.1465C15.9667 30.8166 16.111 30.3936 16.083 29.9551C16.0548 29.5167 15.8577 29.1155 15.5278 28.8253ZM9.11148 38.8295C6.43648 38.8295 4.26031 36.6533 4.26031 33.9784C4.26031 31.3034 6.43656 29.1272 9.11148 29.1272C10.2551 29.1272 11.3066 29.526 12.1367 30.1905L9.65805 33.0084L8.76867 31.9708C8.48281 31.6373 8.08414 31.4351 7.64617 31.4013C7.20875 31.3673 6.78328 31.5064 6.44969 31.7923C5.76117 32.3826 5.68117 33.4228 6.27133 34.1114L8.39328 36.5869C8.70328 36.9487 9.15422 37.158 9.63062 37.1613C9.635 37.1614 9.63922 37.1614 9.64203 37.1614C10.1147 37.1614 10.5647 36.9579 10.8769 36.603L13.8948 33.172C13.9392 33.4344 13.9628 33.7036 13.9628 33.9784C13.9627 36.6533 11.7864 38.8295 9.11148 38.8295ZM14.7977 30.3734L9.99797 35.83C9.90844 35.9317 9.77961 35.9903 9.64422 35.991C9.64242 35.991 9.64055 35.9909 9.63875 35.9909C9.50141 35.9901 9.37133 35.9298 9.28187 35.8254L7.15984 33.3498C6.98969 33.1512 7.01281 32.8512 7.21133 32.681C7.29805 32.6067 7.40609 32.5669 7.51906 32.5669C7.53141 32.5669 7.54375 32.5673 7.55617 32.5683C7.6825 32.578 7.79742 32.6364 7.87992 32.7326L9.20789 34.2819C9.3182 34.4105 9.47891 34.4851 9.64844 34.4862C9.82 34.4887 9.97961 34.4149 10.0916 34.2875L14.0854 29.747C14.1691 29.6519 14.2848 29.5951 14.4112 29.587C14.5373 29.5786 14.6596 29.6205 14.7547 29.7041C14.8498 29.7879 14.9066 29.9035 14.9148 30.0299C14.923 30.1563 14.8813 30.2783 14.7977 30.3734Z" fill="#0D68B0"/>
<path d="M36.3247 30.4912H18.3391C18.0159 30.4912 17.7539 30.7532 17.7539 31.0764C17.7539 31.3996 18.0159 31.6615 18.3391 31.6615H36.3247C36.6479 31.6615 36.9099 31.3996 36.9099 31.0764C36.9099 30.7532 36.6479 30.4912 36.3247 30.4912Z" fill="#0D68B0"/>
<path d="M36.3247 33.3933H18.3391C18.0159 33.3933 17.7539 33.6553 17.7539 33.9785C17.7539 34.3017 18.0159 34.5637 18.3391 34.5637H36.3247C36.6479 34.5637 36.9099 34.3018 36.9099 33.9785C36.9099 33.6553 36.6479 33.3933 36.3247 33.3933Z" fill="#0D68B0"/>
<path d="M30.5436 36.2952H18.3391C18.0159 36.2952 17.7539 36.5571 17.7539 36.8803C17.7539 37.2035 18.0159 37.4656 18.3391 37.4656H30.5436C30.8668 37.4656 31.1288 37.2036 31.1288 36.8803C31.1288 36.557 30.8668 36.2952 30.5436 36.2952Z" fill="#0D68B0"/>
<path d="M15.5278 0.868516C15.198 0.578438 14.775 0.434375 14.3365 0.462109C13.898 0.490234 13.4969 0.687344 13.2067 1.01719L12.9104 1.35414C11.8734 0.508281 10.5509 0 9.11148 0C7.62047 0 6.18961 0.549063 5.08258 1.54617C4.84242 1.7625 4.82313 2.1325 5.03945 2.37273C5.2557 2.61289 5.62578 2.63219 5.86594 2.41594C6.75758 1.61281 7.91023 1.17047 9.11148 1.17047C10.2551 1.17047 11.3066 1.5693 12.1366 2.23391L9.65805 5.05172L8.76859 4.01406C8.48273 3.68055 8.08406 3.47828 7.64609 3.44453C7.20867 3.41055 6.7832 3.54969 6.44961 3.83555C5.76109 4.42578 5.68109 5.46602 6.27125 6.15453L8.3932 8.63008C8.7032 8.99188 9.15414 9.20117 9.63055 9.20445C9.63492 9.20453 9.63914 9.20453 9.64195 9.20453C10.1146 9.20453 10.5646 9.00102 10.8768 8.64609L13.8947 5.21516C13.939 5.4775 13.9627 5.74672 13.9627 6.02148C13.9627 8.69641 11.7864 10.8727 9.11148 10.8727C6.43656 10.8727 4.26031 8.69641 4.26031 6.02148C4.26031 5.44773 4.3593 4.88641 4.55461 4.3532C4.66578 4.04969 4.50984 3.71359 4.20633 3.60242C3.90297 3.49133 3.56672 3.64719 3.45555 3.9507C3.21289 4.61328 3.08984 5.31 3.08984 6.02148C3.08984 9.3418 5.79109 12.043 9.11148 12.043C12.4319 12.043 15.1331 9.3418 15.1331 6.02148C15.1331 5.36742 15.0274 4.73781 14.8337 4.14781L15.6766 3.18961C15.9667 2.85977 16.111 2.43672 16.083 1.99828C16.0548 1.55992 15.8577 1.15867 15.5278 0.868516ZM14.7977 2.41664L9.99797 7.8732C9.90844 7.97492 9.77961 8.03352 9.64422 8.03422C9.64242 8.03422 9.64055 8.03414 9.63875 8.03414C9.50141 8.03328 9.37133 7.97297 9.28187 7.86859L7.15984 5.39297C6.98969 5.19445 7.01281 4.89445 7.21133 4.72422C7.29805 4.64992 7.40609 4.61008 7.51906 4.61008C7.53141 4.61008 7.54375 4.61055 7.55617 4.61156C7.6825 4.62125 7.79742 4.67961 7.87992 4.77578L9.20789 6.32508C9.3182 6.45375 9.47891 6.52836 9.64844 6.52945C9.82 6.5282 9.97961 6.45805 10.0916 6.3307L14.0854 1.79023C14.1691 1.69516 14.2848 1.63828 14.4112 1.63023C14.5373 1.62211 14.6596 1.66375 14.7547 1.74734C14.8498 1.83109 14.9066 1.94672 14.9148 2.0732C14.923 2.19953 14.8813 2.32148 14.7977 2.41664Z" fill="#0D68B0"/>
<path d="M15.5278 14.847C15.198 14.557 14.775 14.4126 14.3365 14.4407C13.898 14.4688 13.4969 14.6659 13.2067 14.9958L12.9092 15.334C11.8723 14.488 10.5509 13.9785 9.11148 13.9785C5.79117 13.9785 3.08984 16.6798 3.08984 20.0001C3.08984 23.3204 5.79109 26.0216 9.11148 26.0216C12.4319 26.0216 15.133 23.3204 15.133 20.0001C15.133 19.3462 15.0269 18.7169 14.833 18.127L15.6765 17.1681C15.9666 16.8383 16.1109 16.4152 16.0829 15.9768C16.0548 15.5384 15.8577 15.1372 15.5278 14.847ZM14.7977 16.3952L12.308 19.2255C12.0945 19.468 12.1182 19.8379 12.3609 20.0513C12.6035 20.2649 12.9733 20.2412 13.1868 19.9984L13.8945 19.1939C13.9388 19.4562 13.9627 19.7254 13.9627 20.0001C13.9627 22.675 11.7864 24.8513 9.11148 24.8513C6.43656 24.8513 4.26023 22.675 4.26023 20.0001C4.26023 17.3252 6.43648 15.1489 9.11141 15.1489C10.255 15.1489 11.3063 15.548 12.1365 16.2124L9.65797 19.0302L8.76859 17.9926C8.48273 17.6591 8.08406 17.4568 7.64609 17.423C7.20867 17.3887 6.7832 17.5281 6.44961 17.8141C5.76109 18.4043 5.68109 19.4445 6.27125 20.133L8.3932 22.6086C8.7032 22.9704 9.15414 23.1797 9.63055 23.183C9.63492 23.183 9.63914 23.183 9.64195 23.183C10.1146 23.183 10.5646 22.9795 10.8768 22.6247L11.4202 22.007C11.6337 21.7643 11.6101 21.3945 11.3673 21.181C11.1247 20.9673 10.7548 20.9913 10.5414 21.2338L9.99797 21.8516C9.90852 21.9533 9.77992 22.0119 9.64406 22.0127C9.64234 22.0127 9.64055 22.0126 9.63875 22.0126C9.50141 22.0117 9.37133 21.9514 9.28187 21.847L7.15984 19.3713C6.98969 19.1728 7.01281 18.8728 7.21133 18.7026C7.30758 18.6202 7.43039 18.5798 7.55625 18.5899C7.68258 18.5996 7.7975 18.658 7.88 18.7541L9.20797 20.3034C9.31828 20.4321 9.47898 20.5067 9.64852 20.5078H9.65227C9.82047 20.5078 9.98055 20.4355 10.0916 20.3091L14.0855 15.7687C14.1691 15.6736 14.2848 15.6167 14.4113 15.6087C14.5374 15.6004 14.6597 15.6422 14.7548 15.7258C14.8499 15.8095 14.9067 15.9252 14.9148 16.0516C14.923 16.178 14.8813 16.3 14.7977 16.3952Z" fill="#0D68B0"/>
</svg>
