<svg width="43" height="40" viewBox="0 0 43 40" fill="none" xmlns="http://www.w3.org/2000/svg">
<path d="M42.018 22.4138C41.7071 20.2629 40.0152 18.5731 37.8615 18.2627V16.9897C37.8615 13.4773 35.188 10.6175 31.9018 10.6175C28.7102 10.6175 26.0382 13.3905 25.9421 16.7992H25.9828L25.9421 16.8062V30.6057C25.9421 35.0171 22.6398 38.5995 18.5802 38.5995C14.5206 38.5995 11.2182 35.0122 11.2182 30.6057V29.4104C12.2349 29.4104 13.3216 28.6744 13.3216 26.6095V24.8484C17.8215 23.6993 21.0342 19.8403 21.0342 15.4652V14.0053H19.6319L19.6024 4.89173C19.5923 3.20479 18.3802 1.76441 16.7179 1.46409C16.3594 0.367093 15.1782 -0.231956 14.0797 0.126213C12.9813 0.484294 12.3815 1.66392 12.7401 2.76101C13.0987 3.85802 14.2798 4.45706 15.3783 4.0989C15.9665 3.90712 16.4395 3.46519 16.6703 2.89187C17.5685 3.1471 18.1908 3.96323 18.198 4.89594L18.2296 14.0053H16.8273V15.4856C16.7714 17.9212 15.1364 20.0379 12.7916 20.71C11.537 21.1075 10.1899 21.1075 8.93531 20.71C6.59324 20.0356 4.96187 17.9193 4.90797 15.4856V14.0053H2.80455V4.90224C2.80859 3.95579 3.44592 3.12881 4.36108 2.88277C4.78781 3.96769 6.01437 4.50162 7.10069 4.07544C8.18702 3.64926 8.72164 2.4242 8.2949 1.33937C7.86817 0.25453 6.64153 -0.279485 5.55529 0.146694C4.96669 0.377684 4.51253 0.859706 4.31761 1.46059C2.63724 1.74734 1.40692 3.19971 1.40228 4.90224V14.0053H0V15.4617C0 19.8417 3.21472 23.7021 7.71252 24.8484V26.6095C7.71252 28.6744 8.79929 29.4104 9.81594 29.4104V30.6057C9.81594 35.7874 13.7472 40 18.5802 40C23.4131 40 27.3444 35.7825 27.3444 30.6057V16.8398C27.4145 14.1824 29.4604 12.0201 31.9018 12.0201C34.4147 12.0201 36.4592 14.2496 36.4592 16.9918V18.2627C33.7764 18.6494 31.9155 21.1349 32.3027 23.8143C32.6899 26.4937 35.1787 28.3522 37.8615 27.9655C40.5443 27.5787 42.4052 25.0931 42.018 22.4138ZM14.7239 2.80154C14.3367 2.80154 14.0228 2.48801 14.0228 2.10131C14.0228 1.7146 14.3367 1.40107 14.7239 1.40107C15.1111 1.40107 15.425 1.7146 15.425 2.10131C15.425 2.48801 15.1111 2.80154 14.7239 2.80154ZM6.31025 1.40107C6.69745 1.40107 7.01138 1.7146 7.01138 2.10131C7.01138 2.48801 6.69745 2.80154 6.31025 2.80154C5.92304 2.80154 5.60911 2.48801 5.60911 2.10131C5.60911 1.7146 5.92304 1.40107 6.31025 1.40107ZM1.40228 15.4617V15.4057H3.50569V15.4856C3.55828 18.529 5.58571 21.1851 8.51042 22.0418C10.043 22.5265 11.6881 22.5265 13.2207 22.0418C16.1468 21.1862 18.176 18.5301 18.2296 15.4856V15.4057H19.6319V15.4617C19.6319 19.3571 16.6254 22.7848 12.4803 23.6139C11.5069 23.8085 10.5099 23.8574 9.52216 23.7588C9.19701 23.7273 8.87378 23.6785 8.55389 23.6125C4.40876 22.7848 1.40228 19.3571 1.40228 15.4617ZM9.81594 28.0099C9.18491 28.0099 9.1148 27.0296 9.1148 26.6095V25.1236C9.17089 25.1306 9.22838 25.1334 9.28518 25.139C9.35529 25.1467 9.4254 25.1523 9.49552 25.1586C9.82716 25.188 10.1616 25.2076 10.4988 25.2083H10.5339C10.8705 25.2083 11.2042 25.188 11.5337 25.1586C11.6038 25.1523 11.6782 25.1467 11.7504 25.139C11.8058 25.1327 11.8633 25.1306 11.9187 25.1236V26.6095C11.9187 27.0296 11.8485 28.0099 11.2175 28.0099H9.81594ZM37.1603 26.6095C35.2242 26.6095 33.6546 25.0419 33.6546 23.1083C33.6546 21.1747 35.2242 19.6071 37.1603 19.6071C39.0964 19.6071 40.666 21.1747 40.666 23.1083C40.6637 25.041 39.0955 26.6072 37.1603 26.6095Z" fill="#0D68B0"/>
<path d="M37.1603 21.0076C35.9986 21.0076 35.0569 21.9481 35.0569 23.1083C35.0569 24.2685 35.9986 25.209 37.1603 25.209C38.322 25.209 39.2638 24.2685 39.2638 23.1083C39.2638 21.9481 38.322 21.0076 37.1603 21.0076ZM37.1603 23.8085C36.7731 23.8085 36.4592 23.495 36.4592 23.1083C36.4592 22.7216 36.7731 22.4081 37.1603 22.4081C37.5476 22.4081 37.8615 22.7216 37.8615 23.1083C37.8615 23.495 37.5476 23.8085 37.1603 23.8085Z" fill="#0D68B0"/>
</svg>
