<svg width="24" height="24" viewBox="0 0 24 24" fill="none" xmlns="http://www.w3.org/2000/svg">
<path d="M20.8535 5.1465L15.8535 0.146484C15.7598 0.0527344 15.6328 0 15.5 0H4.99997C3.89695 0 3 0.896953 3 2.00002V22C3 23.103 3.89695 24 5.00002 24H19C20.103 24 21 23.103 21 22V5.49998C21 5.36719 20.9473 5.24025 20.8535 5.1465ZM16 1.70705L19.293 5.00002H17C16.4487 5.00002 16 4.55128 16 4.00003V1.70705ZM20 22C20 22.5512 19.5513 23 19 23H5.00002C4.44877 23 4.00003 22.5512 4.00003 22V2.00002C4.00003 1.44877 4.44877 1.00003 5.00002 1.00003H15V4.00003C15 5.10305 15.897 6 17 6H20V22Z" fill="#C20016"/>
<path d="M14.5493 14.6782C14.0864 14.3139 13.6465 13.9395 13.3535 13.6465C12.9727 13.2656 12.6333 12.8965 12.3384 12.5449C12.7984 11.1235 13 10.3906 13 9.99998C13 8.34033 12.4004 7.99997 11.5 7.99997C10.8159 7.99997 10 8.35542 10 10.0478C10 10.794 10.4087 11.6997 11.2188 12.7524C11.0205 13.3574 10.7876 14.0552 10.5259 14.8418C10.3999 15.2192 10.2632 15.5688 10.1187 15.8921C10.001 15.9443 9.88673 15.9975 9.77639 16.0527C9.37894 16.2515 9.0015 16.4302 8.65139 16.5962C7.05469 17.352 6 17.8521 6 18.8393C6 19.5562 6.77883 20 7.5 20C8.42967 20 9.83348 18.7582 10.8589 16.6665C11.9233 16.2465 13.2466 15.9355 14.291 15.7407C15.1279 16.3842 16.0522 17 16.5 17C17.7397 17 18 16.2832 18 15.6821C18 14.4999 16.6494 14.4999 16 14.4999C15.7983 14.5 15.2573 14.5596 14.5493 14.6782ZM7.5 19C7.21434 19 7.02098 18.8652 6.99998 18.8393C6.99998 18.4848 8.05711 17.9839 9.07959 17.4995C9.14452 17.4688 9.21047 17.438 9.27736 17.4062C8.52638 18.4951 7.78369 19 7.5 19ZM11 10.0478C11 9 11.3252 9 11.5 9C11.8536 9 12 9 12 9.99998C12 10.2109 11.8594 10.7383 11.6021 11.5615C11.2095 10.957 11 10.439 11 10.0478ZM11.3833 15.4219C11.4146 15.335 11.4449 15.2471 11.4742 15.1582C11.6597 14.6016 11.8267 14.1015 11.9756 13.6514C12.1831 13.8799 12.4068 14.1138 12.6465 14.3535C12.7403 14.4472 12.9727 14.6582 13.2823 14.9223C12.666 15.0566 12.0103 15.2231 11.3833 15.4219ZM17 15.6821C17 15.9067 17 16 16.5361 16.0029C16.3999 15.9736 16.085 15.7881 15.6963 15.5235C15.8374 15.5078 15.9414 15.5 16 15.5C16.7388 15.5 16.9483 15.5722 17 15.6821Z" fill="#C20016"/>
</svg>
