<svg width="40" height="40" viewBox="0 0 40 40" fill="none" xmlns="http://www.w3.org/2000/svg">
<g clip-path="url(#clip0)">
<path d="M14.5469 36.9141H17.125C17.4487 36.9141 17.7109 36.6518 17.7109 36.3281C17.7109 36.0045 17.4487 35.7422 17.125 35.7422H14.5469C14.2232 35.7422 13.9609 36.0045 13.9609 36.3281C13.9609 36.6518 14.2233 36.9141 14.5469 36.9141Z" fill="#0D68B0"/>
<path d="M8.47266 6.34804C8.79626 6.34804 9.05859 6.0857 9.05859 5.7621C9.05859 5.4385 8.79626 5.17616 8.47266 5.17616C8.14905 5.17616 7.88672 5.4385 7.88672 5.7621C7.88672 6.0857 8.14905 6.34804 8.47266 6.34804Z" fill="#0D68B0"/>
<path d="M11.1484 6.34804C11.472 6.34804 11.7344 6.0857 11.7344 5.7621C11.7344 5.4385 11.472 5.17616 11.1484 5.17616C10.8248 5.17616 10.5625 5.4385 10.5625 5.7621C10.5625 6.0857 10.8248 6.34804 11.1484 6.34804Z" fill="#0D68B0"/>
<path d="M13.8242 6.34804C14.1478 6.34804 14.4102 6.0857 14.4102 5.7621C14.4102 5.4385 14.1478 5.17616 13.8242 5.17616C13.5006 5.17616 13.2383 5.4385 13.2383 5.7621C13.2383 6.0857 13.5006 6.34804 13.8242 6.34804Z" fill="#0D68B0"/>
<path d="M25.3311 3.20391H6.33867C5.39805 3.20391 4.63281 3.96922 4.63281 4.90985V32.4374C4.63281 33.3781 5.39805 34.1434 6.33867 34.1434H10.7449C11.0686 34.1434 11.3309 33.8811 11.3309 33.5574C11.3309 33.2338 11.0686 32.9715 10.7449 32.9715H6.33867C6.04422 32.9715 5.80469 32.732 5.80469 32.4374V8.32032H25.8652V11.7655C25.8652 12.0892 26.1274 12.3514 26.4511 12.3514C26.7748 12.3514 27.037 12.0892 27.037 11.7655V4.90985C27.037 3.96922 26.2717 3.20391 25.3311 3.20391ZM25.8652 7.14844H5.80469V4.90985C5.80469 4.61532 6.04422 4.37579 6.33867 4.37579H25.3312C25.6257 4.37579 25.8652 4.61532 25.8652 4.90985V7.14844H25.8652Z" fill="#0D68B0"/>
<path d="M36.6143 13.9188H30.2418V2.99688C30.2418 1.34438 28.8974 0 27.2449 0H4.42664C2.77414 0 1.42969 1.34438 1.42969 2.99688V37.003C1.42969 38.6555 2.77414 39.9999 4.42664 39.9999H27.2448C28.8973 39.9999 30.2417 38.6555 30.2417 37.003V34.1463H36.6143C37.6914 34.1463 38.5677 33.27 38.5677 32.1929V29.6953C38.5677 29.3716 38.3055 29.1094 37.9818 29.1094C37.6581 29.1094 37.3959 29.3716 37.3959 29.6953V32.1929C37.3959 32.6239 37.0453 32.9745 36.6143 32.9745H14.6057C14.1747 32.9745 13.8241 32.6239 13.8241 32.1929V14.8916C13.8241 14.456 14.1786 14.1016 14.6142 14.1016H19.2052C19.598 14.1016 19.9548 14.3337 20.114 14.6927L20.1317 14.7327V14.7328L20.8929 16.45C21.2398 17.2325 22.0171 17.7381 22.873 17.7381H36.3188C36.9127 17.7381 37.3959 18.2212 37.3959 18.8151V18.8152V26.956C37.3959 27.2797 37.6581 27.542 37.9818 27.542C38.3055 27.542 38.5677 27.2797 38.5677 26.956V15.8722C38.5678 14.7951 37.6915 13.9188 36.6143 13.9188ZM21.0227 13.9188C20.6278 13.3091 19.9463 12.9297 19.2052 12.9297H14.6142C13.5323 12.9297 12.6523 13.8098 12.6523 14.8916V32.1929C12.6523 33.27 13.5286 34.1463 14.6057 34.1463H29.0699V37.003C29.0699 38.0094 28.2512 38.828 27.2449 38.828H4.42664C3.42023 38.828 2.60156 38.0094 2.60156 37.003V2.99688C2.60156 1.99055 3.42023 1.17188 4.42664 1.17188H27.2448C28.2512 1.17188 29.0698 1.99055 29.0698 2.99688V13.9188H21.0227ZM37.3959 16.8416C37.0759 16.6663 36.7089 16.5663 36.3189 16.5663H22.8731C22.4803 16.5663 22.1235 16.3342 21.9643 15.9752L21.5722 15.0907H36.6143C37.0453 15.0907 37.3959 15.4412 37.3959 15.8723V16.8416Z" fill="#0D68B0"/>
<path d="M28.6268 19.4141C28.0561 19.4141 27.5918 19.8783 27.5918 20.449V22.5197C27.5918 23.0904 28.0561 23.5547 28.6268 23.5547H34.76C35.3307 23.5547 35.7949 23.0904 35.7949 22.5197V20.449C35.7949 19.8783 35.3307 19.4141 34.76 19.4141H28.6268ZM34.623 22.3828H28.7637V20.5859H34.623V22.3828Z" fill="#0D68B0"/>
</g>
<defs>
<clipPath id="clip0">
<rect width="40" height="40" fill="white"/>
</clipPath>
</defs>
</svg>
