<svg width="21" height="20" viewBox="0 0 21 20" fill="none" xmlns="http://www.w3.org/2000/svg">
<g clip-path="url(#clip0)">
<path d="M15.5471 0H6.37475C3.38952 0 0.960938 2.42858 0.960938 5.41381V14.5863C0.960938 17.5714 3.38952 20 6.37475 20H15.5472C18.5323 20 20.9609 17.5714 20.9609 14.5863V5.41381C20.9609 2.42858 18.5323 0 15.5471 0V0ZM19.7884 14.5863C19.7884 16.9249 17.8858 18.8275 15.5471 18.8275H6.37475C4.03604 18.8275 2.13342 16.9249 2.13342 14.5863V5.41381C2.13342 3.0751 4.03604 1.17248 6.37475 1.17248H15.5472C17.8858 1.17248 19.7884 3.0751 19.7884 5.41381V14.5863Z" fill="white"/>
<path d="M10.9608 4.53137C7.94534 4.53137 5.49219 6.98452 5.49219 9.99996C5.49219 13.0154 7.94534 15.4685 10.9608 15.4685C13.9762 15.4685 16.4294 13.0154 16.4294 9.99996C16.4294 6.98452 13.9762 4.53137 10.9608 4.53137ZM10.9608 14.2961C8.592 14.2961 6.66467 12.3689 6.66467 9.99996C6.66467 7.63119 8.592 5.70386 10.9608 5.70386C13.3297 5.70386 15.2569 7.63119 15.2569 9.99996C15.2569 12.3689 13.3297 14.2961 10.9608 14.2961Z" fill="white"/>
<path d="M16.5612 2.58923C15.6701 2.58923 14.9453 3.31418 14.9453 4.20514C14.9453 5.09625 15.6701 5.82119 16.5612 5.82119C17.4523 5.82119 18.1773 5.09625 18.1773 4.20514C18.1773 3.31402 17.4523 2.58923 16.5612 2.58923ZM16.5612 4.64856C16.3168 4.64856 16.1178 4.44958 16.1178 4.20514C16.1178 3.96054 16.3168 3.76172 16.5612 3.76172C16.8058 3.76172 17.0048 3.96054 17.0048 4.20514C17.0048 4.44958 16.8058 4.64856 16.5612 4.64856Z" fill="white"/>
</g>
<defs>
<clipPath id="clip0">
<rect width="20" height="20" fill="white" transform="translate(0.960938)"/>
</clipPath>
</defs>
</svg>
