<svg width="21" height="20" viewBox="0 0 21 20" fill="none" xmlns="http://www.w3.org/2000/svg">
<g clip-path="url(#clip0)">
<path d="M15.5471 0H6.37475C3.38952 0 0.960938 2.42858 0.960938 5.41381V14.5863C0.960938 17.5714 3.38952 20 6.37475 20H15.5472C18.5323 20 20.9609 17.5714 20.9609 14.5863V5.41381C20.9609 2.42858 18.5323 0 15.5471 0V0ZM19.7884 14.5863C19.7884 16.9249 17.8858 18.8275 15.5471 18.8275H6.37475C4.03604 18.8275 2.13342 16.9249 2.13342 14.5863V5.41381C2.13342 3.0751 4.03604 1.17248 6.37475 1.17248H15.5472C17.8858 1.17248 19.7884 3.0751 19.7884 5.41381V14.5863Z" fill="#0D68B0"/>
<path d="M10.9608 4.53125C7.94534 4.53125 5.49219 6.9844 5.49219 9.99984C5.49219 13.0153 7.94534 15.4684 10.9608 15.4684C13.9762 15.4684 16.4294 13.0153 16.4294 9.99984C16.4294 6.9844 13.9762 4.53125 10.9608 4.53125ZM10.9608 14.2959C8.592 14.2959 6.66467 12.3688 6.66467 9.99984C6.66467 7.63107 8.592 5.70373 10.9608 5.70373C13.3297 5.70373 15.2569 7.63107 15.2569 9.99984C15.2569 12.3688 13.3297 14.2959 10.9608 14.2959Z" fill="#0D68B0"/>
<path d="M16.5612 2.58936C15.6701 2.58936 14.9453 3.3143 14.9453 4.20526C14.9453 5.09637 15.6701 5.82131 16.5612 5.82131C17.4523 5.82131 18.1773 5.09637 18.1773 4.20526C18.1773 3.31415 17.4523 2.58936 16.5612 2.58936ZM16.5612 4.64868C16.3168 4.64868 16.1178 4.4497 16.1178 4.20526C16.1178 3.96066 16.3168 3.76184 16.5612 3.76184C16.8058 3.76184 17.0048 3.96066 17.0048 4.20526C17.0048 4.4497 16.8058 4.64868 16.5612 4.64868Z" fill="#0D68B0"/>
</g>
<defs>
<clipPath id="clip0">
<rect width="20" height="20" fill="white" transform="translate(0.960938)"/>
</clipPath>
</defs>
</svg>
