<svg width="30" height="30" viewBox="0 0 30 30" fill="none" xmlns="http://www.w3.org/2000/svg">
<path d="M14.9993 0C6.72776 0 -0.000732422 6.72914 -0.000732422 15C-0.000732422 23.2709 6.72776 30 14.9993 30C23.2708 30 29.9993 23.2709 29.9993 15C29.9993 6.72914 23.2708 0 14.9993 0ZM14.9993 28.75C7.41747 28.75 1.24925 22.5818 1.24925 15C1.24925 7.4182 7.41747 1.24998 14.9993 1.24998C22.5811 1.24998 28.7493 7.4182 28.7493 15C28.7493 22.5818 22.5811 28.75 14.9993 28.75Z" fill="#C20016"/>
<path d="M19.7698 14.5796L12.7698 10.0797C12.6165 9.97961 12.4182 9.97422 12.26 10.0611C12.0989 10.149 11.9993 10.317 11.9993 10.5001V19.5C11.9993 19.6831 12.0989 19.8511 12.26 19.939C12.3342 19.9795 12.4173 20 12.4993 20C12.593 20 12.6878 19.9736 12.7698 19.9204L19.7698 15.4205C19.9124 15.3287 19.9993 15.17 19.9993 15C19.9993 14.8301 19.9124 14.6715 19.7698 14.5796ZM12.9992 18.584V11.4161L18.5745 15L12.9992 18.584Z" fill="#C20016"/>
<path d="M12.9993 19V11L19.9993 15L12.9993 19Z" fill="#C20016"/>
</svg>
