<svg width="40" height="40" viewBox="0 0 40 40" fill="none" xmlns="http://www.w3.org/2000/svg">
<path d="M20 0C8.97133 0 0 8.97219 0 20C0 31.0278 8.97133 40 20 40C31.0287 40 40 31.0278 40 20C40 8.97219 31.0287 0 20 0ZM20 38.3334C9.89094 38.3334 1.66664 30.1091 1.66664 20C1.66664 9.89094 9.89094 1.66664 20 1.66664C30.1091 1.66664 38.3334 9.89094 38.3334 20C38.3334 30.1091 30.1091 38.3334 20 38.3334Z" fill="black"/>
<path d="M25.7705 19.5796L18.7705 15.0797C18.6172 14.9796 18.419 14.9742 18.2608 15.0611C18.0996 15.149 18 15.317 18 15.5001V24.5C18 24.6831 18.0996 24.8511 18.2608 24.939C18.335 24.9795 18.418 25 18.5 25C18.5938 25 18.6885 24.9736 18.7705 24.9204L25.7705 20.4205C25.9131 20.3287 26 20.17 26 20C26 19.8301 25.9131 19.6715 25.7705 19.5796ZM19 23.584V16.4161L24.5752 20L19 23.584Z" fill="black"/>
<path d="M18 24V16L25 20L18 24Z" fill="black"/>
</svg>
