<svg width="30" height="30" viewBox="0 0 30 30" fill="none" xmlns="http://www.w3.org/2000/svg">
<g opacity="0.5" clip-path="url(#clip0)">
<path d="M15 30C23.2715 30 30 23.2709 30 15C30 6.72914 23.2715 -5.88224e-07 15 -1.31134e-06C6.7285 -2.03446e-06 2.0344e-06 6.72914 1.31134e-06 15C5.8828e-07 23.2709 6.7285 30 15 30ZM15 1.24998C22.5818 1.24998 28.75 7.4182 28.75 15C28.75 22.5818 22.5818 28.75 15 28.75C7.4182 28.75 1.24998 22.5818 1.24998 15C1.24998 7.4182 7.41821 1.24998 15 1.24998Z" fill="black"/>
<path d="M10.6721 15.3153L15.9221 18.6902C16.0371 18.7653 16.1858 18.7693 16.3044 18.7042C16.4253 18.6382 16.5 18.5122 16.5 18.3749L16.5 11.625C16.5 11.4877 16.4253 11.3617 16.3044 11.2958C16.2488 11.2654 16.1865 11.25 16.125 11.25C16.0547 11.25 15.9836 11.2698 15.9221 11.3097L10.6721 14.6847C10.5652 14.7535 10.5 14.8725 10.5 15C10.5 15.1274 10.5652 15.2464 10.6721 15.3153ZM15.75 12.312L15.75 17.6879L11.5686 15L15.75 12.312Z" fill="black"/>
<path d="M16.5 12L16.5 18L11.25 15L16.5 12Z" fill="black"/>
</g>
<defs>
<clipPath id="clip0">
<rect width="30" height="30" fill="white" transform="translate(30 30) rotate(-180)"/>
</clipPath>
</defs>
</svg>
