<svg width="85" height="85" viewBox="0 0 85 85" fill="none" xmlns="http://www.w3.org/2000/svg">
<path d="M75.0391 2.49023H53.5334C51.9387 0.921387 49.7672 0 47.4258 0C45.0839 0 42.9116 0.922383 41.3173 2.49023H19.9219C16.489 2.49023 13.6963 5.28295 13.6963 8.71582V61.3428C13.6963 62.0304 14.2538 62.5879 14.9414 62.5879C15.629 62.5879 16.1865 62.0304 16.1865 61.3428V8.71582C16.1865 6.65606 17.8621 4.98047 19.9219 4.98047H39.5521C39.483 5.12673 39.4163 5.27448 39.3548 5.42572L38.5077 7.4707H19.9219C19.2342 7.4707 18.6768 8.02818 18.6768 8.71582V65.0781H4.98047C4.29283 65.0781 3.73535 65.6356 3.73535 66.3232C3.73535 71.1292 7.64519 75.0391 12.4512 75.0391H13.6963V78.7744C13.6963 82.2073 16.489 85 19.9219 85H75.0391C78.4719 85 81.2646 82.2073 81.2646 78.7744V8.71582C81.2646 5.28295 78.4719 2.49023 75.0391 2.49023ZM41.6585 6.37151C42.6179 4.01376 44.8818 2.49023 47.4258 2.49023C49.9707 2.49023 52.235 4.01442 53.1972 6.38064L56.4249 14.1728C56.6175 14.6381 57.0717 14.9414 57.5752 14.9414H60.0977C61.721 14.9414 63.1057 15.9823 63.6197 17.4316H31.3413C31.8551 15.9823 33.24 14.9414 34.8633 14.9414H37.2766C37.7802 14.9414 38.2342 14.6381 38.427 14.1728L41.6585 6.37151ZM21.167 9.96094H37.4762L36.4447 12.4512H34.8633C31.4304 12.4512 28.6377 15.2439 28.6377 18.6768C28.6377 19.3644 29.1952 19.9219 29.8828 19.9219H65.0781C65.7659 19.9219 66.3232 19.3644 66.3232 18.6768C66.3232 15.2439 63.5305 12.4512 60.0977 12.4512H58.4071L57.3755 9.96094H73.7939V66.3232C73.7939 69.7561 71.0012 72.5488 67.5684 72.5488C64.1355 72.5488 61.3428 69.7561 61.3428 66.3232C61.3428 65.6356 60.7855 65.0781 60.0977 65.0781H21.167V9.96094ZM6.3506 67.5684H58.9412C59.2196 69.5063 60.1378 71.2403 61.4744 72.5488H12.4512C9.4448 72.5488 6.92916 70.4064 6.3506 67.5684ZM78.7744 78.7744C78.7744 80.8342 77.0987 82.5098 75.0391 82.5098H19.9219C17.8621 82.5098 16.1865 80.8342 16.1865 78.7744V75.0391H67.5684C72.3742 75.0391 76.2842 71.1292 76.2842 66.3232V8.71582C76.2842 8.02818 75.7269 7.4707 75.0391 7.4707H56.344L55.5009 5.43519C55.4381 5.28079 55.37 5.12972 55.2993 4.98047H75.0391C77.0987 4.98047 78.7744 6.65606 78.7744 8.71582V78.7744Z" fill="#C20016"/>
<path d="M47.4258 12.4512C49.4854 12.4512 51.1611 10.7756 51.1611 8.71582C51.1611 6.65606 49.4854 4.98047 47.4258 4.98047C45.3662 4.98047 43.6904 6.65606 43.6904 8.71582C43.6904 10.7756 45.3662 12.4512 47.4258 12.4512ZM47.4258 7.4707C48.1124 7.4707 48.6709 8.02918 48.6709 8.71582C48.6709 9.40246 48.1124 9.96094 47.4258 9.96094C46.7391 9.96094 46.1807 9.40246 46.1807 8.71582C46.1807 8.02918 46.7391 7.4707 47.4258 7.4707Z" fill="#C20016"/>
<path d="M55.1172 53.7061H29.8828C29.1952 53.7061 28.6377 54.2635 28.6377 54.9512C28.6377 55.6388 29.1952 56.1963 29.8828 56.1963H55.1172C55.805 56.1963 56.3623 55.6388 56.3623 54.9512C56.3623 54.2635 55.805 53.7061 55.1172 53.7061Z" fill="#C20016"/>
<path d="M65.0781 58.6865C65.7659 58.6865 66.3232 58.129 66.3232 57.4414V52.4609C66.3232 51.7733 65.7659 51.2158 65.0781 51.2158H60.0977C59.4099 51.2158 58.8525 51.7733 58.8525 52.4609V57.4414C58.8525 58.129 59.4099 58.6865 60.0977 58.6865H65.0781ZM61.3428 53.7061H63.833V56.1963H61.3428V53.7061Z" fill="#C20016"/>
<path d="M55.1172 41.2549H29.8828C29.1952 41.2549 28.6377 41.8124 28.6377 42.5C28.6377 43.1876 29.1952 43.7451 29.8828 43.7451H55.1172C55.805 43.7451 56.3623 43.1876 56.3623 42.5C56.3623 41.8124 55.805 41.2549 55.1172 41.2549Z" fill="#C20016"/>
<path d="M60.0977 46.2354H65.0781C65.7659 46.2354 66.3232 45.6779 66.3232 44.9902V40.0098C66.3232 39.3221 65.7659 38.7646 65.0781 38.7646H60.0977C59.4099 38.7646 58.8525 39.3221 58.8525 40.0098V44.9902C58.8525 45.6779 59.4099 46.2354 60.0977 46.2354ZM61.3428 41.2549H63.833V43.7451H61.3428V41.2549Z" fill="#C20016"/>
<path d="M55.1172 28.8037H29.8828C29.1952 28.8037 28.6377 29.3612 28.6377 30.0488C28.6377 30.7365 29.1952 31.2939 29.8828 31.2939H55.1172C55.805 31.2939 56.3623 30.7365 56.3623 30.0488C56.3623 29.3612 55.805 28.8037 55.1172 28.8037Z" fill="#C20016"/>
<path d="M60.0977 33.7842H65.0781C65.7659 33.7842 66.3232 33.2267 66.3232 32.5391V27.5586C66.3232 26.871 65.7659 26.3135 65.0781 26.3135H60.0977C59.4099 26.3135 58.8525 26.871 58.8525 27.5586V32.5391C58.8525 33.2267 59.4099 33.7842 60.0977 33.7842ZM61.3428 28.8037H63.833V31.2939H61.3428V28.8037Z" fill="#C20016"/>
</svg>
