<svg width="40" height="40" viewBox="0 0 40 40" fill="none" xmlns="http://www.w3.org/2000/svg">
<path d="M15 3.125C14.6292 3.125 14.2666 3.23497 13.9583 3.44099C13.65 3.64702 13.4096 3.93986 13.2677 4.28247C13.1258 4.62508 13.0887 5.00208 13.161 5.36579C13.2334 5.72951 13.412 6.0636 13.6742 6.32582C13.9364 6.58804 14.2705 6.76662 14.6342 6.83897C14.9979 6.91132 15.3749 6.87418 15.7175 6.73227C16.0601 6.59036 16.353 6.35003 16.559 6.04169C16.765 5.73335 16.875 5.37084 16.875 5C16.875 4.50272 16.6775 4.0258 16.3258 3.67417C15.9742 3.32254 15.4973 3.125 15 3.125ZM15 5.625C14.8764 5.625 14.7555 5.58834 14.6528 5.51967C14.55 5.45099 14.4699 5.35338 14.4226 5.23917C14.3753 5.12497 14.3629 4.9993 14.387 4.87807C14.4111 4.75683 14.4706 4.64546 14.5581 4.55806C14.6455 4.47065 14.7568 4.41112 14.8781 4.38701C14.9993 4.36289 15.125 4.37527 15.2392 4.42257C15.3534 4.46988 15.451 4.54999 15.5197 4.65277C15.5883 4.75555 15.625 4.87638 15.625 5C15.625 5.16576 15.5592 5.32473 15.4419 5.44194C15.3247 5.55915 15.1658 5.625 15 5.625Z" fill="#0D68B0"/>
<path d="M6.875 20.625H9.375V21.875H6.875V20.625Z" fill="#0D68B0"/>
<path d="M10.625 20.625H20V21.875H10.625V20.625Z" fill="#0D68B0"/>
<path d="M6.875 24.375H9.375V25.625H6.875V24.375Z" fill="#0D68B0"/>
<path d="M6.875 28.125H9.375V29.375H6.875V28.125Z" fill="#0D68B0"/>
<path d="M6.875 31.875H9.375V33.125H6.875V31.875Z" fill="#0D68B0"/>
<path d="M38.125 21.875H37.5C35.4724 21.8699 33.5001 21.2125 31.875 20L30.375 18.875C30.2672 18.7928 30.1355 18.7484 30 18.7484C29.8645 18.7484 29.7328 18.7928 29.625 18.875L28.75 19.5312V6.87496C28.7485 6.37814 28.5505 5.90208 28.1992 5.55077C27.8479 5.19946 27.3718 5.00144 26.875 4.99996H21.7625C21.6328 4.63575 21.394 4.32034 21.0786 4.09668C20.7632 3.87302 20.3866 3.75195 20 3.74996H18.5375C18.2798 3.01747 17.8011 2.38304 17.1675 1.93423C16.5338 1.48542 15.7765 1.24438 15 1.24438C14.2235 1.24438 13.4662 1.48542 12.8325 1.93423C12.1989 2.38304 11.7202 3.01747 11.4625 3.74996H10C9.61338 3.75195 9.23676 3.87302 8.92139 4.09668C8.60602 4.32034 8.36723 4.63575 8.2375 4.99996H3.125C2.62818 5.00144 2.15212 5.19946 1.80081 5.55077C1.4495 5.90208 1.25148 6.37814 1.25 6.87496V36.875C1.25148 37.3718 1.4495 37.8478 1.80081 38.1992C2.15212 38.5505 2.62818 38.7485 3.125 38.75H26.875C27.1581 38.7481 27.4371 38.6826 27.6914 38.5581C27.9456 38.4337 28.1686 38.2536 28.3438 38.0312L29.7313 38.6875C29.8149 38.7286 29.9068 38.7499 30 38.7499C30.0932 38.7499 30.1851 38.7286 30.2687 38.6875L35.7562 36.0812C36.6613 35.6052 37.4188 34.8905 37.9466 34.0146C38.4743 33.1387 38.7522 32.1351 38.75 31.1125V22.5C38.75 22.3342 38.6842 22.1752 38.5669 22.058C38.4497 21.9408 38.2908 21.875 38.125 21.875ZM21.875 6.24996H26.875C27.0408 6.24996 27.1997 6.31581 27.3169 6.43302C27.4342 6.55023 27.5 6.7092 27.5 6.87496V20.4312C27.1001 20.6806 26.6823 20.8999 26.25 21.0875V8.12496C26.25 7.9592 26.1842 7.80023 26.0669 7.68302C25.9497 7.56581 25.7908 7.49996 25.625 7.49996H21.875V6.24996ZM9.375 5.62496C9.375 5.4592 9.44085 5.30023 9.55806 5.18302C9.67527 5.06581 9.83424 4.99996 10 4.99996H11.9375C12.082 5.00143 12.2224 4.9522 12.3343 4.86085C12.4462 4.76949 12.5225 4.64179 12.55 4.49996C12.6648 3.93482 12.9714 3.42672 13.4179 3.06177C13.8644 2.69682 14.4233 2.49745 15 2.49745C15.5767 2.49745 16.1356 2.69682 16.5821 3.06177C17.0286 3.42672 17.3352 3.93482 17.45 4.49996C17.4775 4.64179 17.5538 4.76949 17.6657 4.86085C17.7776 4.9522 17.918 5.00143 18.0625 4.99996H20C20.1658 4.99996 20.3247 5.06581 20.4419 5.18302C20.5592 5.30023 20.625 5.4592 20.625 5.62496V8.12496H9.375V5.62496ZM8.75 9.37496H21.25C21.4158 9.37496 21.5747 9.30911 21.6919 9.1919C21.8092 9.07469 21.875 8.91572 21.875 8.74996H25V21.525C24.1862 21.7536 23.3453 21.8713 22.5 21.875H21.875C21.7092 21.875 21.5503 21.9408 21.4331 22.058C21.3158 22.1752 21.25 22.3342 21.25 22.5V24.375H10.625V25.625H21.25V28.125H10.625V29.375H21.25V31.1125C21.2509 31.3674 21.2676 31.6221 21.3 31.875H10.625V33.125H21.6313C21.9009 33.8229 22.3067 34.4603 22.825 35H5V8.74996H8.125C8.125 8.91572 8.19085 9.07469 8.30806 9.1919C8.42527 9.30911 8.58424 9.37496 8.75 9.37496ZM26.875 37.5H3.125C2.95924 37.5 2.80027 37.4341 2.68306 37.3169C2.56585 37.1997 2.5 37.0407 2.5 36.875V6.87496C2.5 6.7092 2.56585 6.55023 2.68306 6.43302C2.80027 6.31581 2.95924 6.24996 3.125 6.24996H8.125V7.49996H4.375C4.20924 7.49996 4.05027 7.56581 3.93306 7.68302C3.81585 7.80023 3.75 7.9592 3.75 8.12496V35.625C3.75 35.7907 3.81585 35.9497 3.93306 36.0669C4.05027 36.1841 4.20924 36.25 4.375 36.25H24.6L27.1125 37.4437C27.0378 37.4778 26.9571 37.4969 26.875 37.5ZM37.5 31.1125C37.5023 31.9033 37.2887 32.6798 36.8823 33.3582C36.4759 34.0367 35.8921 34.5913 35.1938 34.9625L30 37.4312L24.8187 34.9687C24.1181 34.5976 23.532 34.0424 23.1234 33.3629C22.7148 32.6834 22.4993 31.9053 22.5 31.1125V23.125C24.7982 23.1205 27.0338 22.3753 28.875 21L30 20.1562L31.125 21C32.9662 22.3753 35.2018 23.1205 37.5 23.125V31.1125Z" fill="#0D68B0"/>
<path d="M18.75 13.125H16.875V11.25C16.875 11.0842 16.8092 10.9253 16.6919 10.8081C16.5747 10.6908 16.4158 10.625 16.25 10.625H13.75C13.5842 10.625 13.4253 10.6908 13.3081 10.8081C13.1908 10.9253 13.125 11.0842 13.125 11.25V13.125H11.25C11.0842 13.125 10.9253 13.1908 10.8081 13.3081C10.6908 13.4253 10.625 13.5842 10.625 13.75V16.25C10.625 16.4158 10.6908 16.5747 10.8081 16.6919C10.9253 16.8092 11.0842 16.875 11.25 16.875H13.125V18.75C13.125 18.9158 13.1908 19.0747 13.3081 19.1919C13.4253 19.3092 13.5842 19.375 13.75 19.375H16.25C16.4158 19.375 16.5747 19.3092 16.6919 19.1919C16.8092 19.0747 16.875 18.9158 16.875 18.75V16.875H18.75C18.9158 16.875 19.0747 16.8092 19.1919 16.6919C19.3092 16.5747 19.375 16.4158 19.375 16.25V13.75C19.375 13.5842 19.3092 13.4253 19.1919 13.3081C19.0747 13.1908 18.9158 13.125 18.75 13.125ZM18.125 15.625H16.25C16.0842 15.625 15.9253 15.6908 15.8081 15.8081C15.6908 15.9253 15.625 16.0842 15.625 16.25V18.125H14.375V16.25C14.375 16.0842 14.3092 15.9253 14.1919 15.8081C14.0747 15.6908 13.9158 15.625 13.75 15.625H11.875V14.375H13.75C13.9158 14.375 14.0747 14.3092 14.1919 14.1919C14.3092 14.0747 14.375 13.9158 14.375 13.75V11.875H15.625V13.75C15.625 13.9158 15.6908 14.0747 15.8081 14.1919C15.9253 14.3092 16.0842 14.375 16.25 14.375H18.125V15.625Z" fill="#0D68B0"/>
<path d="M35.7188 24.2374C33.7804 23.9431 31.9448 23.1745 30.375 21.9999C30.2672 21.9178 30.1355 21.8733 30 21.8733C29.8645 21.8733 29.7328 21.9178 29.625 21.9999C28.0552 23.1745 26.2196 23.9431 24.2812 24.2374C24.1337 24.2608 23.9993 24.3359 23.902 24.4492C23.8047 24.5625 23.7508 24.7068 23.75 24.8561V31.1124C23.7502 31.6702 23.8999 32.2177 24.1835 32.6981C24.4671 33.1784 24.8742 33.574 25.3625 33.8436L25.4 33.8624L29.7312 35.9186C29.8149 35.9597 29.9068 35.9811 30 35.9811C30.0932 35.9811 30.1851 35.9597 30.2688 35.9186L34.6375 33.8436C35.1253 33.5734 35.532 33.1777 35.8155 32.6975C36.099 32.2173 36.249 31.67 36.25 31.1124V24.8561C36.2492 24.7068 36.1953 24.5625 36.098 24.4492C36.0007 24.3359 35.8663 24.2608 35.7188 24.2374ZM35 31.1124C35.0017 31.4412 34.9158 31.7645 34.751 32.049C34.5862 32.3336 34.3486 32.569 34.0625 32.7311L30 34.6624L25.95 32.7436C25.6615 32.58 25.4216 32.3428 25.2547 32.0563C25.0878 31.7697 24.9999 31.444 25 31.1124V25.3811C26.7951 25.0311 28.4978 24.3118 30 23.2686C31.5022 24.3118 33.2049 25.0311 35 25.3811V31.1124Z" fill="#0D68B0"/>
<path d="M27.3173 29.5581L26.4336 30.4419L28.3086 32.3169C28.4258 32.434 28.5847 32.4998 28.7505 32.4998C28.9162 32.4998 29.0751 32.434 29.1923 32.3169L34.1923 27.3169L33.3086 26.4331L28.7505 30.9912L27.3173 29.5581Z" fill="#0D68B0"/>
</svg>
