<svg width="40" height="40" viewBox="0 0 40 40" fill="none" xmlns="http://www.w3.org/2000/svg">
<path d="M38.75 20.625H28.125V10C28.1248 9.89712 28.0994 9.79585 28.0509 9.70512C28.0024 9.61439 27.9323 9.53697 27.8469 9.47968L14.7219 0.729686C14.6191 0.66129 14.4984 0.624798 14.375 0.624798C14.2516 0.624798 14.1309 0.66129 14.0281 0.729686L0.903125 9.47968C0.817669 9.53697 0.747608 9.61439 0.699108 9.70512C0.650609 9.79585 0.625159 9.89712 0.625 10V28.75C0.625 28.9158 0.690848 29.0747 0.808058 29.1919C0.925268 29.3091 1.08424 29.375 1.25 29.375H15.1742L14.407 31.6773C14.3859 31.7411 14.3751 31.8078 14.375 31.875V36.875C14.375 37.0407 14.4408 37.1997 14.5581 37.3169C14.6753 37.4341 14.8342 37.5 15 37.5H16.875C16.9011 37.4997 16.9272 37.4979 16.9531 37.4945C17.0908 38.0323 17.4036 38.5089 17.8421 38.8493C18.2806 39.1897 18.8199 39.3744 19.375 39.3744C19.9301 39.3744 20.4694 39.1897 20.9079 38.8493C21.3464 38.5089 21.6592 38.0323 21.7969 37.4945C21.8228 37.4979 21.8489 37.4997 21.875 37.5H31.875C31.9011 37.4997 31.9272 37.4979 31.9531 37.4945C32.0908 38.0323 32.4036 38.5089 32.8421 38.8493C33.2806 39.1897 33.8199 39.3744 34.375 39.3744C34.9301 39.3744 35.4694 39.1897 35.9079 38.8493C36.3464 38.5089 36.6592 38.0323 36.7969 37.4945C36.8228 37.4979 36.8489 37.4997 36.875 37.5H38.75C38.9158 37.5 39.0747 37.4341 39.1919 37.3169C39.3092 37.1997 39.375 37.0407 39.375 36.875V21.25C39.375 21.0842 39.3092 20.9253 39.1919 20.8081C39.0747 20.6908 38.9158 20.625 38.75 20.625ZM5.625 28.125H1.875V10.3344L14.375 2.00156L26.875 10.3344V20.625H25C24.8342 20.625 24.6753 20.6908 24.5581 20.8081C24.4408 20.9253 24.375 21.0842 24.375 21.25V23.75H23.125V20H23.75C23.9158 20 24.0747 19.9341 24.1919 19.8169C24.3092 19.6997 24.375 19.5408 24.375 19.375V17.5C24.375 17.3342 24.3092 17.1753 24.1919 17.0581C24.0747 16.9408 23.9158 16.875 23.75 16.875H5C4.83424 16.875 4.67527 16.9408 4.55806 17.0581C4.44085 17.1753 4.375 17.3342 4.375 17.5V19.375C4.375 19.5408 4.44085 19.6997 4.55806 19.8169C4.67527 19.9341 4.83424 20 5 20H5.625V28.125ZM22.5 30.625C22.6658 30.625 22.8247 30.5591 22.9419 30.4419C23.0592 30.3247 23.125 30.1658 23.125 30V26.25C23.125 26.0842 23.0592 25.9253 22.9419 25.808C22.8247 25.6908 22.6658 25.625 22.5 25.625H17.7422L17.9508 25H24.375V32.5H15.625V31.9766L16.0758 30.625H22.5ZM16.4922 29.375L17.3258 26.875H21.875V29.375H16.4922ZM5.625 18.75V18.125H23.125V18.75H5.625ZM6.875 28.125V20H21.875V23.75H17.5C17.3688 23.75 17.241 23.7912 17.1345 23.8679C17.0281 23.9446 16.9485 24.0529 16.907 24.1773L15.5914 28.125H6.875ZM19.375 38.125C19.1278 38.125 18.8861 38.0517 18.6805 37.9143C18.475 37.777 18.3148 37.5817 18.2201 37.3533C18.1255 37.1249 18.1008 36.8736 18.149 36.6311C18.1973 36.3886 18.3163 36.1659 18.4911 35.9911C18.6659 35.8163 18.8887 35.6972 19.1311 35.649C19.3736 35.6008 19.6249 35.6255 19.8534 35.7201C20.0818 35.8147 20.277 35.975 20.4143 36.1805C20.5517 36.3861 20.625 36.6278 20.625 36.875C20.6246 37.2064 20.4927 37.5241 20.2584 37.7584C20.0241 37.9927 19.7064 38.1246 19.375 38.125ZM34.375 38.125C34.1278 38.125 33.8861 38.0517 33.6805 37.9143C33.475 37.777 33.3148 37.5817 33.2201 37.3533C33.1255 37.1249 33.1008 36.8736 33.149 36.6311C33.1973 36.3886 33.3163 36.1659 33.4911 35.9911C33.6659 35.8163 33.8887 35.6972 34.1311 35.649C34.3736 35.6008 34.6249 35.6255 34.8534 35.7201C35.0818 35.8147 35.277 35.975 35.4143 36.1805C35.5517 36.3861 35.625 36.6278 35.625 36.875C35.6246 37.2064 35.4927 37.5241 35.2584 37.7584C35.0241 37.9927 34.7064 38.1246 34.375 38.125ZM38.125 36.25H36.875C36.8489 36.2502 36.8228 36.2521 36.7969 36.2555C36.6592 35.7177 36.3464 35.2411 35.9079 34.9007C35.4694 34.5603 34.9301 34.3756 34.375 34.3756C33.8199 34.3756 33.2806 34.5603 32.8421 34.9007C32.4036 35.2411 32.0908 35.7177 31.9531 36.2555C31.9272 36.2521 31.9011 36.2502 31.875 36.25H21.875C21.8489 36.2502 21.8228 36.2521 21.7969 36.2555C21.6592 35.7177 21.3464 35.2411 20.9079 34.9007C20.4694 34.5603 19.9301 34.3756 19.375 34.3756C18.8199 34.3756 18.2806 34.5603 17.8421 34.9007C17.4036 35.2411 17.0908 35.7177 16.9531 36.2555C16.9272 36.2521 16.9011 36.2502 16.875 36.25H15.625V33.75H38.125V36.25ZM38.125 32.5H25.625V21.875H38.125V32.5Z" fill="#0D68B0"/>
<path d="M9.375 15.625H19.375C19.5408 15.625 19.6997 15.5592 19.8169 15.4419C19.9342 15.3247 20 15.1658 20 15V11.875C20 11.7092 19.9342 11.5503 19.8169 11.4331C19.6997 11.3159 19.5408 11.25 19.375 11.25H9.375C9.20924 11.25 9.05027 11.3159 8.93306 11.4331C8.81585 11.5503 8.75 11.7092 8.75 11.875V15C8.75 15.1658 8.81585 15.3247 8.93306 15.4419C9.05027 15.5592 9.20924 15.625 9.375 15.625ZM13.75 14.375H12.5V12.5H13.75V14.375ZM15 12.5H16.25V14.375H15V12.5ZM18.75 14.375H17.5V12.5H18.75V14.375ZM10 12.5H11.25V14.375H10V12.5Z" fill="#0D68B0"/>
</svg>
