<svg width="256" height="60" viewBox="0 0 256 60" fill="none" xmlns="http://www.w3.org/2000/svg">
<g clip-path="url(#clip0)">
<path fill-rule="evenodd" clip-rule="evenodd" d="M37.4909 10.6265C35.9199 10.4919 34.1694 9.05555 32.0711 9.05555C34.2816 9.68394 34.8427 10.5816 36.3127 10.9856C39.1068 11.4345 47.0739 12.0628 47.792 15.2946C47.691 16.0015 47.2422 16.5738 46.4006 16.7084C45.6488 17.1348 45.155 17.1236 43.887 17.1236C42.159 17.1236 38.3101 16.0352 36.6269 16.0352C33.3278 16.0352 31.0836 17.651 26.5278 17.651C24.0254 17.651 21.5231 16.5513 18.9198 15.1375C13.1857 17.2246 8.484 20.4227 5.65625 25.6742C6.59883 17.9877 10.0999 10.3797 16.1032 2.82776C17.7303 3.7479 19.2788 4.35385 20.7152 4.35385C33.0024 3.62447 38.052 4.56705 40.2962 5.57696C44.3583 7.39481 55.9611 11.4457 60.8199 15.3843C60.4608 16.0127 59.8885 16.4167 59.1816 16.4167C58.4747 16.585 57.8463 16.9104 57.0496 16.9104C55.6357 16.8992 49.1161 14.7447 47.7135 14.1837C45.3907 11.3335 40.9022 11.0417 37.4909 10.6265Z" fill="#C20016"/>
<path fill-rule="evenodd" clip-rule="evenodd" d="M56.7464 37.9839L26.6285 37.6809C26.8081 37.1535 26.8978 36.5925 26.8978 36.009C26.8978 33.0802 24.5189 30.7013 21.5902 30.7013C18.6615 30.7013 16.2826 33.0802 16.2826 36.009C16.2826 36.5027 16.3499 36.9852 16.4733 37.4453L8.34913 35.9753C8.02371 34.0228 7.82173 32.0254 7.76562 29.9944L7.78807 29.7251H27.6385L27.9639 27.9746L28.581 31.397C28.6035 31.5317 28.6708 31.6327 28.7718 31.7112C28.8616 31.7786 28.985 31.8234 29.0972 31.8234C29.2094 31.8234 29.3329 31.7786 29.4226 31.7112C29.5124 31.6327 29.5909 31.5317 29.6134 31.4083L30.9936 24.9785L32.6319 32.5192C32.6543 32.6426 32.7329 32.7436 32.8227 32.8221C32.9124 32.8895 33.0247 32.9343 33.1481 32.9343C33.2603 32.9343 33.3837 32.8895 33.4735 32.8221C33.5745 32.7436 33.6418 32.6426 33.6643 32.5079L34.3936 28.4122L34.6068 29.7363H69.864C71.0983 31.8795 71.3115 33.8882 71.3115 36.2334L66.6884 37.7146C66.8679 37.1872 66.9689 36.6149 66.9689 36.0202C66.9689 33.0914 64.59 30.7125 61.6613 30.7125C58.7325 30.7125 56.3536 33.0914 56.3536 36.0202C56.3761 36.7047 56.5107 37.378 56.7464 37.9839Z" fill="#0D68B0"/>
<path fill-rule="evenodd" clip-rule="evenodd" d="M68.3253 28.9059H35.3348L34.9421 26.4934C34.9197 26.3587 34.8523 26.2465 34.7513 26.1679C34.6616 26.1006 34.5494 26.0557 34.4259 26.0557C34.3025 26.0557 34.1903 26.1006 34.1005 26.1679C33.9995 26.2465 33.9322 26.3475 33.9097 26.4821L33.1355 30.836L31.5196 23.43C31.4972 23.3065 31.4186 23.2055 31.3289 23.127C31.2391 23.0597 31.1269 23.0148 31.0034 23.0148C30.8912 23.0148 30.7678 23.0597 30.678 23.127C30.5883 23.2055 30.5097 23.3065 30.4873 23.43L29.1295 29.7363L28.5011 26.2128C28.4787 26.0782 28.4113 25.9772 28.3103 25.8986C28.2206 25.8313 28.0971 25.7864 27.9849 25.7864C27.8727 25.7864 27.7493 25.8313 27.6595 25.8986C27.5585 25.9772 27.4912 26.0782 27.4688 26.2128L26.9638 28.8947H7.86523L7.87646 28.7376C8.02233 27.032 9.25667 25.6742 10.9399 25.3712C20.3994 23.688 23.6311 19.6708 34.1903 19.6708C45.333 19.6708 50.4947 25.6293 53.2664 26.0669C55.7351 26.4485 63.6909 26.8861 68.3253 28.9059Z" fill="#C20016"/>
<path fill-rule="evenodd" clip-rule="evenodd" d="M26.1341 36.009C26.1341 38.5225 24.1031 40.5536 21.5895 40.5536C19.076 40.5536 17.0449 38.5225 17.0449 36.009C17.0449 33.4954 19.076 31.4644 21.5895 31.4644C24.1031 31.4756 26.1341 33.5067 26.1341 36.009Z" fill="#0D68B0"/>
<path d="M61.6716 40.5536C64.1815 40.5536 66.2162 38.5189 66.2162 36.009C66.2162 33.4991 64.1815 31.4644 61.6716 31.4644C59.1616 31.4644 57.127 33.4991 57.127 36.009C57.127 38.5189 59.1616 40.5536 61.6716 40.5536Z" fill="#0D68B0"/>
<path fill-rule="evenodd" clip-rule="evenodd" d="M37.4909 49.3735C35.9199 49.5081 34.1694 50.9444 32.0711 50.9444C34.2816 50.316 34.8427 49.4183 36.3127 49.0144C39.1068 48.5655 47.0739 47.9371 47.792 44.7054C47.691 43.9985 47.2422 43.4262 46.4006 43.2916C45.6488 42.8651 45.155 42.8764 43.887 42.8764C42.159 42.8764 38.3101 43.9648 36.6269 43.9648C33.3278 43.9648 31.0836 42.349 26.5278 42.349C24.0254 42.349 21.5231 43.4486 18.9198 44.8625C13.1857 42.7754 8.484 39.5773 5.65625 34.3258C6.59883 42.0011 10.0999 49.6091 16.1032 57.1722C17.7303 56.2521 19.2788 55.6461 20.7152 55.6461C33.0024 56.3755 38.052 55.4329 40.2962 54.423C44.3583 52.6052 55.9611 48.5543 60.8199 44.6157C60.4608 43.9873 59.8885 43.5833 59.1816 43.5833C58.4747 43.415 57.8463 43.0896 57.0496 43.0896C55.6357 43.1008 49.1161 45.2553 47.7135 45.8163C45.3907 48.6553 40.9022 48.9471 37.4909 49.3735Z" fill="#0D68B0"/>
<path fill-rule="evenodd" clip-rule="evenodd" d="M2.0091 28.8947C2.2223 19.5137 5.67845 10.1664 12.3888 0.920142L10.5934 0C3.74839 9.51562 0.224922 19.1771 0.0117188 28.8947H2.0091Z" fill="#C20016"/>
<path fill-rule="evenodd" clip-rule="evenodd" d="M12.9493 59.8429C5.64429 49.8223 1.98616 39.7905 1.98616 29.8261C1.98616 29.7924 1.98616 29.7587 1.98616 29.7251H0C0 29.7587 0 29.7924 0 29.8261C0 39.8803 3.54591 49.957 10.6153 60L12.3883 59.0911C12.579 59.3379 12.7698 59.596 12.9493 59.8429Z" fill="#0D68B0"/>
<path fill-rule="evenodd" clip-rule="evenodd" d="M76.6643 22.218H77.259C77.4273 22.218 77.562 22.3527 77.562 22.521V40.475C77.562 40.6433 77.4273 40.778 77.259 40.778H76.6643C76.496 40.778 76.3613 40.6433 76.3613 40.475V22.521C76.3613 22.3527 76.496 22.218 76.6643 22.218Z" fill="#0D68B0"/>
<path fill-rule="evenodd" clip-rule="evenodd" d="M94.92 40.3067C95.425 40.3067 95.7953 39.9589 95.9299 39.6783L101.597 28.3224H101.72V39.6783C101.72 40.1047 101.922 40.3067 102.348 40.3067H104.739C105.165 40.3067 105.367 40.1047 105.367 39.6783V23.3178C105.367 22.8913 105.165 22.6894 104.739 22.6894H101.339C100.834 22.6894 100.609 23.0148 100.43 23.3178L94.0336 36.1549H93.9213L87.5252 23.3178C87.3457 23.0148 87.1213 22.6894 86.6163 22.6894H83.2163C82.7899 22.6894 82.5879 22.8913 82.5879 23.3178V39.6783C82.5879 40.1047 82.7899 40.3067 83.2163 40.3067H85.6064C86.0328 40.3067 86.2348 40.1047 86.2348 39.6783V28.3224H86.3582L92.025 39.6783C92.1484 39.9589 92.5299 40.3067 93.0349 40.3067H94.92ZM115.814 29.4894C117.699 29.4894 119.214 30.9706 119.337 32.3845H112.291C112.414 30.9706 113.906 29.4894 115.814 29.4894ZM115.814 40.8117C119.966 40.8117 121.952 38.8255 122.356 36.7832C122.356 36.4017 122.109 36.1549 121.728 36.1549H119.842C119.461 36.1549 119.236 36.4017 118.956 36.7832C118.552 37.3892 117.722 38.2981 115.814 38.2981C113.828 38.2981 112.268 36.7608 112.145 35.0215H122.367C122.794 35.0215 122.996 34.8195 122.996 34.3931V33.6413C122.996 29.7363 120.224 26.9759 115.825 26.9759C111.415 26.9759 108.655 29.77 108.655 33.8994C108.655 38.0288 111.415 40.8117 115.814 40.8117ZM140.983 40.3067C141.41 40.3067 141.612 40.1047 141.612 39.6783V38.2981C141.612 37.8717 141.41 37.6697 140.983 37.6697H139.345V28.1092C139.345 27.6828 139.143 27.4808 138.717 27.4808H133.555C129.784 27.4808 128.023 29.2426 127.136 32.766L125.879 37.6697H124.623C124.196 37.6697 123.994 37.8717 123.994 38.2981V39.6783C123.994 40.1047 124.196 40.3067 124.623 40.3067H140.983ZM130.671 32.7548C131.052 31.1165 132.051 30.1066 133.566 30.1066H135.956V37.6585H129.414L130.671 32.7548Z" fill="#C20016"/>
<path fill-rule="evenodd" clip-rule="evenodd" d="M206.505 28.8498C206.505 25.3264 203.856 22.6781 198.448 22.6781H189.886C189.46 22.6781 189.258 22.8801 189.258 23.3065V39.6671C189.258 40.0935 189.46 40.2955 189.886 40.2955H192.276C192.703 40.2955 192.905 40.0935 192.905 39.6671V35.0103H198.437C203.856 35.0215 206.505 32.3733 206.505 28.8498ZM150.174 25.5845H156.346C156.772 25.5845 156.974 25.3825 156.974 24.9561V23.3178C156.974 22.8914 156.772 22.6894 156.346 22.6894H140.367C139.94 22.6894 139.738 22.8914 139.738 23.3178V24.9561C139.738 25.3825 139.94 25.5845 140.367 25.5845H146.538V39.6783C146.538 40.1047 146.74 40.3067 147.167 40.3067H149.557C149.983 40.3067 150.185 40.1047 150.185 39.6783V25.5845H150.174ZM164.144 29.4894C166.03 29.4894 167.545 30.9706 167.668 32.3845H160.621C160.744 30.9706 162.226 29.4894 164.144 29.4894ZM164.144 40.8117C168.296 40.8117 170.35 38.8367 170.686 36.7833C170.754 36.413 170.44 36.1549 170.058 36.1549H168.173C167.791 36.1549 167.556 36.4017 167.286 36.7833C166.871 37.378 166.052 38.2981 164.144 38.2981C162.158 38.2981 160.599 36.7608 160.475 35.0215H170.698C171.124 35.0215 171.326 34.8195 171.326 34.3931V33.6413C171.326 29.7363 168.554 26.9759 164.156 26.9759C159.746 26.9759 156.985 29.77 156.985 33.8994C156.985 38.0288 159.735 40.8117 164.144 40.8117ZM183.243 27.4696C182.716 27.4696 182.458 27.795 182.233 28.098L179.596 31.6215H179.473L176.836 28.098C176.611 27.795 176.353 27.4696 175.826 27.4696H173.312C172.908 27.4696 172.729 27.8287 172.931 28.098L177.206 33.6301L172.426 39.6671C172.213 39.9364 172.426 40.2955 172.807 40.2955H175.321C175.803 40.2955 176.106 39.9476 176.331 39.6671L179.473 35.7621H179.596L182.738 39.6671C182.963 39.9476 183.265 40.2955 183.748 40.2955H186.262C186.643 40.2955 186.856 39.9364 186.643 39.6671L181.863 33.6301L186.138 28.098C186.351 27.8287 186.161 27.4696 185.757 27.4696H183.243ZM198.448 25.5845C201.22 25.5845 202.723 27.1218 202.723 28.8611C202.723 30.6003 201.208 32.1377 198.448 32.1377H192.916V25.5845H198.448ZM215.437 29.4894C217.322 29.4894 218.837 30.9706 218.96 32.3845H211.913C212.037 30.9706 213.529 29.4894 215.437 29.4894ZM215.437 40.8117C219.589 40.8117 221.642 38.8367 221.979 36.7833C222.035 36.413 221.732 36.1549 221.35 36.1549H219.465C219.084 36.1549 218.848 36.4017 218.59 36.7833C218.175 37.378 217.356 38.2981 215.448 38.2981C213.462 38.2981 211.902 36.7608 211.767 35.0215H221.99C222.416 35.0215 222.618 34.8195 222.618 34.3931V33.6413C222.618 29.7363 219.847 26.9759 215.448 26.9759C211.038 26.9759 208.278 29.77 208.278 33.8994C208.278 38.0288 211.038 40.8117 215.437 40.8117ZM228.779 36.0314V28.098C228.779 27.6716 228.577 27.4696 228.15 27.4696H226.007C225.581 27.4696 225.379 27.6716 225.379 28.098V39.6783C225.379 40.1047 225.581 40.3067 226.007 40.3067H228.397C228.779 40.3067 229.116 40.0486 229.407 39.6783L235.579 31.7449H235.702V39.6783C235.702 40.1047 235.904 40.3067 236.331 40.3067H238.474C238.9 40.3067 239.102 40.1047 239.102 39.6783V28.098C239.102 27.6716 238.9 27.4696 238.474 27.4696H236.084C235.702 27.4696 235.366 27.7277 235.074 28.098L228.958 36.0314H228.779ZM232.179 25.3264C235.096 25.3264 236.836 23.5422 236.836 21.4214C236.836 21.1408 236.611 20.9164 236.331 20.9164H234.816C234.535 20.9164 234.389 21.1408 234.311 21.4214C234.042 22.4088 233.357 23.1831 232.168 23.1831C230.989 23.1831 230.305 22.3976 230.024 21.4214C229.946 21.1408 229.8 20.9164 229.519 20.9164H228.005C227.724 20.9164 227.5 21.1408 227.5 21.4214C227.522 23.5422 229.25 25.3264 232.179 25.3264ZM249.291 26.9647C244.713 26.9647 241.863 29.6578 241.863 33.7647C241.863 37.9166 244.758 40.8117 249.291 40.8117C253.342 40.8117 255.497 38.5562 255.833 36.1549C255.889 35.7285 255.631 35.5265 255.205 35.5265H253.443C253.062 35.5265 252.736 35.7733 252.557 36.1549C252.052 37.2882 251.176 38.2981 249.28 38.2981C246.733 38.2981 245.252 36.5588 245.252 33.7647C245.252 30.9482 246.89 29.4894 249.28 29.4894C251.064 29.4894 251.906 30.4881 252.299 31.2512C252.489 31.6215 252.804 31.8796 253.185 31.8796H255.07C255.497 31.8796 255.766 31.6776 255.699 31.2512C255.373 29.0967 253.32 26.9647 249.291 26.9647Z" fill="#0D68B0"/>
</g>
<defs>
<clipPath id="clip0">
<rect width="255.844" height="60" fill="white"/>
</clipPath>
</defs>
</svg>
