<svg width="0" height="0" class="hidden">
  <symbol  xmlns="http://www.w3.org/2000/svg" viewBox="0 0 30 30" id="01">
    <g clip-path="url(#clip0)" >
      <path d="M15.004 1.5a1.5 1.5 0 10-.004 3 1.5 1.5 0 00.004-3zm.43 1.744a.514.514 0 01-.867 0 .492.492 0 010-.495v.001a.5.5 0 01.867 0 .492.492 0 010 .494z"></path>
      <path d="M25.5 3h-4.092A1.5 1.5 0 0020 2h-1.34a3.493 3.493 0 00-3.16-2h-1a3.493 3.493 0 00-3.16 2H10a1.5 1.5 0 00-1.408 1H4.5a.5.5 0 00-.5.5v26a.5.5 0 00.5.5h21a.5.5 0 00.5-.5v-26a.5.5 0 00-.5-.5zm-16 .5A.5.5 0 0110 3h1.675a.5.5 0 00.472-.336A2.49 2.49 0 0114.5 1h1a2.49 2.49 0 012.353 1.664.5.5 0 00.472.336H20a.5.5 0 01.5.5V6h-11V3.5zM9 7h12a.5.5 0 00.5-.5V6H23v21H7V6h1.5v.5A.5.5 0 009 7zm16 22H5V4h3.5v1h-2a.5.5 0 00-.5.5v22a.5.5 0 00.5.5h17a.5.5 0 00.5-.5v-22a.5.5 0 00-.5-.5h-2V4H25v25z"></path>
      <path d="M13.5 15h3v-2h2v-3h-2V8h-3v2h-2v3h2v2zm-1-3v-1h2V9h1v2h2v1h-2v2h-1v-2h-2zM21 22.5h-9.5v1H21v-1zm0-2h-9.5v1H21v-1zm0-2h-9.5v1H21v-1zm-10.5 0H9v1h1.5v-1zm0 4H9v1h1.5v-1zm0-2H9v1h1.5v-1z"></path>
    </g>
    <defs>
      <clipPath id="clip0">
        <path  d="M0 0h30v30H0z"></path>
      </clipPath>
    </defs>
  </symbol>
  <symbol  xmlns="http://www.w3.org/2000/svg" viewBox="0 0 30 30" id="02">
    <path d="M15 7.978a.703.703 0 00.703-.704V5.868a.703.703 0 00-1.406 0v1.406a.703.703 0 00.703.704zM5.39 13.36h-.702a.703.703 0 000 1.406h.703a.703.703 0 000-1.407zm3.167 0h-.864a.703.703 0 000 1.406h.864a.703.703 0 000-1.407zm3.356.167a3.94 3.94 0 00-1.035-.166.703.703 0 00-.035 1.405c.226.007.45.043.665.108a.703.703 0 00.405-1.347zm2.804 2.241a6.172 6.172 0 00-.59-.776.703.703 0 10-1.048.937c.167.188.32.388.455.599a.703.703 0 101.183-.76z" ></path>
    <path d="M29.56 20.597l-5.625-5.625a.703.703 0 00-1.2.497v2.105l-3.985-.02c-.078 0-.157 0-.234.003V7.266h2.109a.703.703 0 00.497-1.2L15.497.44a.703.703 0 00-.994 0L8.878 6.065a.703.703 0 00.497 1.2h2.11v3.286a7.258 7.258 0 00-.239-.004l-3.98.021V8.463a.703.703 0 00-1.2-.498L.44 13.591a.703.703 0 000 .994l5.625 5.625a.703.703 0 001.2-.497v-2.114l3.985-.02a.234.234 0 01.234.233v11.25a.703.703 0 001.407 0V24.82a5.866 5.866 0 015.855-5.86l4.688.025h.003a.703.703 0 00.704-.703v-1.115l3.927 3.928-3.927 3.927v-1.115a.703.703 0 00-.7-.703l-4.691-.025a1.643 1.643 0 00-1.64 1.64v4.244a.703.703 0 001.406 0V24.82a.234.234 0 01.23-.235l3.988.022v2.113a.703.703 0 001.2.497l5.626-5.625a.703.703 0 000-.994zM11.072 5.859L15 1.932l3.927 3.927h-1.114a.703.703 0 00-.704.704v6.958a7.329 7.329 0 00-1.406-1.445v-1.052a.703.703 0 00-1.406 0v.194a7.228 7.228 0 00-1.406-.483V6.563a.703.703 0 00-.704-.704h-1.114zm1.819 14.669v-2.715a1.643 1.643 0 00-1.645-1.641l-4.687.025a.703.703 0 00-.7.703v1.115l-3.927-3.927 3.927-3.928v1.115a.703.703 0 00.707.703s5.247-.005 5.522.036c2.839.407 4.984 2.862 5.02 5.726a7.21 7.21 0 00-1.458.509l-.01-.072a.703.703 0 00-1.39.214c.03.196.046.395.047.593 0 .031.002.062.007.093a7.33 7.33 0 00-1.413 1.45z" ></path>
    <path d="M15 27.188a.703.703 0 00-.703.703v.703a.703.703 0 001.406 0v-.703a.703.703 0 00-.703-.703zm.428-3.859a.703.703 0 00-.888.449 4.922 4.922 0 00-.234 1.22.703.703 0 101.404.089c.018-.296.074-.59.167-.871a.703.703 0 00-.45-.887zm6.333-1.532a.703.703 0 100-1.406h-1.068a.703.703 0 100 1.406h1.068zm-3.668.183a.703.703 0 10-.45-1.332c-.394.133-.77.316-1.118.544a.703.703 0 10.77 1.177 3.5 3.5 0 01.798-.388zm6.517-.183h.703a.703.703 0 000-1.406h-.704a.703.703 0 000 1.406z" ></path>
  </symbol>
  <symbol  xmlns="http://www.w3.org/2000/svg" viewBox="0 0 30 30" id="03">
    <g clip-path="url(#clip0)" >
      <path d="M27.546 6.655h-4.833V3.808a2.637 2.637 0 00-2.63-2.639H9.917a2.637 2.637 0 00-2.63 2.639v2.847H2.454A2.458 2.458 0 000 9.112v17.261c0 1.355 1.1 2.458 2.454 2.458h25.092A2.458 2.458 0 0030 26.373V9.113c0-1.356-1.1-2.458-2.454-2.458zm-16.267 0V5.173h7.442v1.482h-7.442zM9.917 2.34h10.166c.804 0 1.458.658 1.458 1.467v2.847h-1.649V4.587a.586.586 0 00-.585-.585h-8.613a.586.586 0 00-.587.585v2.068H8.46V3.808c0-.81.654-1.467 1.458-1.467zM1.172 26.373V9.113c0-.71.575-1.286 1.282-1.286h.808v19.832h-.808a1.285 1.285 0 01-1.282-1.286zM4.434 7.827h2.44v19.832h-2.44V7.827zm3.613 0h14.08v19.832H8.047V7.827zm20.781 18.546c0 .71-.575 1.286-1.282 1.286h-.634V20.36a.586.586 0 00-1.172 0v7.299H23.3V7.827h2.441v7.236a.586.586 0 001.172 0V7.826h.634c.707 0 1.282.577 1.282 1.286v17.261z"></path>
      <path d="M19.208 15.556h-2.055v-2.06a.586.586 0 00-.586-.586h-3.133a.586.586 0 00-.586.586v2.06h-2.055a.586.586 0 00-.586.586v3.139c0 .324.262.586.586.586h2.055v2.06c0 .324.262.586.586.586h3.133a.586.586 0 00.586-.586v-2.06h2.055a.586.586 0 00.586-.586v-3.139a.586.586 0 00-.586-.586zm-.586 3.14h-2.055a.586.586 0 00-.586.585v2.06H14.02v-2.06a.586.586 0 00-.586-.586h-2.055v-1.967h2.055a.586.586 0 00.586-.586v-2.06h1.96v2.06c0 .323.263.586.587.586h2.055v1.967zm7.589-1.549a.593.593 0 00-.466.499.59.59 0 00.322.601c.222.11.498.065.674-.11a.592.592 0 00.115-.664.592.592 0 00-.645-.326z"></path>
    </g>
    <defs>
      <clipPath id="clip0">
        <path  d="M0 0h30v30H0z"></path>
      </clipPath>
    </defs>
  </symbol>
  <symbol  xmlns="http://www.w3.org/2000/svg" viewBox="0 0 30 30" id="04">
    <path d="M31.514 16.81a3.679 3.679 0 00-3.118-3.113v-.955c0-2.634-2.005-4.779-4.47-4.779-2.393 0-4.397 2.08-4.47 4.636h.031l-.03.006v10.35c0 3.308-2.477 5.995-5.522 5.995-3.045 0-5.521-2.69-5.521-5.996v-.896c.762 0 1.577-.552 1.577-2.1v-1.322c3.375-.861 5.785-3.756 5.785-7.037v-1.095h-1.052l-.022-6.835a2.63 2.63 0 00-2.163-2.57 1.57 1.57 0 00-2.984.972 1.57 1.57 0 002.948.098c.673.191 1.14.803 1.146 1.503l.023 6.832H12.62v1.11a4.177 4.177 0 01-3.026 3.918 4.787 4.787 0 01-2.893 0 4.175 4.175 0 01-3.02-3.918v-1.11H2.103V3.677c.003-.71.481-1.33 1.168-1.515a1.586 1.586 0 002.95-1.157 1.586 1.586 0 00-2.983.09 2.627 2.627 0 00-2.186 2.582v6.827H0v1.092c0 3.285 2.411 6.18 5.784 7.04v1.321c0 1.549.815 2.1 1.578 2.1v.897C7.362 26.84 10.31 30 13.935 30c3.625 0 6.573-3.163 6.573-7.046V12.63c.053-1.993 1.587-3.615 3.418-3.615 1.885 0 3.418 1.672 3.418 3.729v.953a3.677 3.677 0 101.052 7.277 3.677 3.677 0 003.117-4.164zM11.043 2.101a.525.525 0 110-1.05.525.525 0 010 1.05zm-6.31-1.05a.526.526 0 110 1.05.526.526 0 010-1.05zM1.052 11.596v-.042h1.577v.06a5.22 5.22 0 003.754 4.917 5.858 5.858 0 003.532 0 5.22 5.22 0 003.757-4.917v-.06h1.052v.042c0 2.922-2.255 5.493-5.364 6.114a7.511 7.511 0 01-2.945 0c-3.108-.621-5.363-3.192-5.363-6.114zm6.31 9.411c-.473 0-.526-.735-.526-1.05v-1.114c.042.005.085.007.128.011.052.006.105.01.158.015.248.022.5.037.752.037H7.9c.253 0 .503-.015.75-.037.053-.005.109-.009.163-.015.041-.005.084-.006.126-.011v1.114c0 .315-.053 1.05-.526 1.05H7.362zm20.508-1.05a2.628 2.628 0 01-2.629-2.626 2.628 2.628 0 012.63-2.626 2.628 2.628 0 012.629 2.626 2.63 2.63 0 01-2.63 2.626z" ></path>
    <path d="M27.87 15.756a1.577 1.577 0 10-.002 3.153 1.577 1.577 0 00.002-3.153zm0 2.1a.526.526 0 110-1.05.526.526 0 010 1.05z" ></path>
  </symbol>
  <symbol  xmlns="http://www.w3.org/2000/svg" viewBox="0 0 30 30" id="05">
    <path d="M7.053 16.579h-.006a.55.55 0 00-.549.552.555.555 0 001.108 0 .552.552 0 00-.553-.552zm4.725 0h-.006a.55.55 0 00-.55.552.555.555 0 001.109 0 .552.552 0 00-.553-.552zm19.486 0h-.005a.55.55 0 00-.55.552.555.555 0 001.108 0 .552.552 0 00-.553-.552z" ></path>
    <path d="M37.207 9.9l-.743-.743-1.496-4.49a.553.553 0 00-.167-1.079h-5.353v-2.4c0-.63-.512-1.142-1.143-1.142H1.143C.513.046 0 .558 0 1.189v12.99c0 .63.513 1.143 1.143 1.143h.628v1.219c0 .63.513 1.143 1.143 1.143h1.273a2.912 2.912 0 005.223 1.152 2.912 2.912 0 005.223-1.152h13.763a2.919 2.919 0 002.862 2.362 2.918 2.918 0 002.914-2.915l-.001-.037h2.401c.63 0 1.143-.513 1.143-1.143v-4.826c0-.463-.18-.898-.508-1.225zm-33.02 6.679H2.914a.038.038 0 01-.038-.038v-1.219h1.89c-.286.36-.49.788-.58 1.257zm2.86 2.362a1.812 1.812 0 01-1.809-1.81c0-.994.806-1.803 1.798-1.809h.023a1.811 1.811 0 011.798 1.81c0 .997-.811 1.809-1.81 1.809zm4.725 0c-.998 0-1.81-.812-1.81-1.81 0-.994.806-1.803 1.798-1.809h.023a1.811 1.811 0 011.798 1.81c0 .997-.811 1.809-1.81 1.809zm16.624-2.362H14.633a2.902 2.902 0 00-.579-1.257h10.708a.552.552 0 100-1.105H1.142a.038.038 0 01-.037-.038V1.19c0-.021.017-.038.038-.038h27.162c.021 0 .038.017.038.038v13.028h-1.218a.552.552 0 100 1.105h1.85c-.286.36-.488.788-.579 1.257zm7.016-7.086h-3.564a.038.038 0 01-.038-.038v-2.4h2.79l.812 2.438zm-4.154 9.448c-.998 0-1.81-.812-1.81-1.81 0-.994.806-1.803 1.798-1.809h.016a1.812 1.812 0 011.805 1.81c0 .997-.812 1.809-1.81 1.809zm5.352-2.99a.038.038 0 01-.038.038h-2.634a2.919 2.919 0 00-2.68-1.772h-1.81V4.732c0-.022.017-.039.038-.039h4.326l.419 1.257h-2.973a.553.553 0 00-.553.553v2.952c0 .63.513 1.143 1.143 1.143h4.495l.083.083a.625.625 0 01.184.444v1.32h-.628a.552.552 0 100 1.106h.628v2.4z" ></path>
    <path d="M26.533 11.855H2.913a.552.552 0 100 1.105h23.62a.552.552 0 100-1.105z" ></path>
  </symbol>
  <symbol  xmlns="http://www.w3.org/2000/svg" viewBox="0 0 30 30" id="06">
    <path d="M11.25 2.344a1.407 1.407 0 100 2.813 1.407 1.407 0 000-2.813zm0 1.875a.469.469 0 110-.938.469.469 0 010 .938zm-6.094 11.25h1.875v.937H5.156v-.937zm2.813 0H15v.937H7.969v-.937zm-2.813 2.812h1.875v.938H5.156v-.938zm0 2.813h1.875v.937H5.156v-.937zm0 2.812h1.875v.938H5.156v-.938z" ></path>
    <path d="M28.594 16.406h-.469c-1.52-.003-3-.497-4.219-1.406l-1.125-.844a.464.464 0 00-.562 0l-.657.492V5.156a1.41 1.41 0 00-1.406-1.406h-3.834A1.411 1.411 0 0015 2.812h-1.097a2.812 2.812 0 00-5.306 0H7.5a1.41 1.41 0 00-1.322.938H2.344A1.41 1.41 0 00.938 5.156v22.5a1.41 1.41 0 001.406 1.407h17.812a1.413 1.413 0 001.102-.54l1.04.493a.458.458 0 00.404 0l4.115-1.955a4.2 4.2 0 002.245-3.727v-6.459a.47.47 0 00-.468-.469zM16.406 4.688h3.75a.469.469 0 01.469.468v10.167c-.3.188-.613.352-.938.493V6.094a.469.469 0 00-.468-.469h-2.813v-.938zm-9.375-.47A.469.469 0 017.5 3.75h1.453a.463.463 0 00.46-.375 1.875 1.875 0 013.675 0 .463.463 0 00.459.375H15a.47.47 0 01.469.469v1.875H7.03V4.219zm-.468 2.813h9.375a.47.47 0 00.468-.468h2.344v9.58c-.61.172-1.241.26-1.875.263h-.469a.469.469 0 00-.468.469v1.406h-7.97v.938h7.97v1.875h-7.97v.937h7.97v1.303c0 .192.013.383.037.572H7.969v.938h8.254c.203.523.507 1.001.896 1.406H3.75V6.562h2.344a.469.469 0 00.468.47zm13.593 21.094H2.344a.469.469 0 01-.469-.469v-22.5a.469.469 0 01.469-.468h3.75v.937H3.28a.469.469 0 00-.469.469v20.625a.469.469 0 00.47.468H18.45l1.884.896a.471.471 0 01-.178.042zm7.969-4.79a3.26 3.26 0 01-1.73 2.887L22.5 28.073l-3.886-1.846a3.27 3.27 0 01-1.739-2.893v-5.99a8.016 8.016 0 004.781-1.594l.844-.633.844.633a8.016 8.016 0 004.781 1.594v5.99z" ></path>
    <path d="M14.063 9.844h-1.407V8.438a.469.469 0 00-.469-.47h-1.874a.469.469 0 00-.47.47v1.406H8.439a.469.469 0 00-.47.469v1.874a.47.47 0 00.47.47h1.406v1.405a.47.47 0 00.469.47h1.874a.469.469 0 00.47-.47v-1.406h1.405a.469.469 0 00.47-.469v-1.874a.469.469 0 00-.47-.47zm-.47 1.875h-1.405a.469.469 0 00-.47.469v1.406h-.937v-1.406a.469.469 0 00-.469-.47H8.906v-.937h1.406a.469.469 0 00.47-.469V8.906h.937v1.406a.469.469 0 00.469.47h1.406v.937zm13.197 6.459a8.927 8.927 0 01-4.01-1.678.464.464 0 00-.562 0 8.927 8.927 0 01-4.008 1.678.473.473 0 00-.398.464v4.692a2.341 2.341 0 001.209 2.049l.028.014 3.248 1.542a.456.456 0 00.404 0l3.276-1.556a2.346 2.346 0 001.21-2.049v-4.692a.472.472 0 00-.399-.464zm-.54 5.156a1.388 1.388 0 01-.703 1.214L22.5 25.997l-3.038-1.44a1.406 1.406 0 01-.712-1.223v-4.298a9.894 9.894 0 003.75-1.585 9.894 9.894 0 003.75 1.585v4.298z" ></path>
    <path d="M20.487 22.169l-.663.662 1.406 1.407a.469.469 0 00.663 0l3.75-3.75-.663-.663-3.418 3.418-1.075-1.074z" ></path>
  </symbol>
</svg>